<?xml version="1.0" encoding="UTF-8" standalone="no"?>
<svg width="2012px" height="1920px" viewBox="0 0 2012 1920" version="1.1" xmlns="http://www.w3.org/2000/svg" xmlns:xlink="http://www.w3.org/1999/xlink" xmlns:sketch="http://www.bohemiancoding.com/sketch/ns">
    <!-- Generator: Sketch 3.2.2 (9983) - http://www.bohemiancoding.com/sketch -->
    <title>Final_Logo Export</title>
    <desc>Created with Sketch.</desc>
    <defs></defs>
    <g id="Page-1" stroke="none" stroke-width="1" fill="none" fill-rule="evenodd" sketch:type="MSPage">
        <g id="Final_Logo-Export" sketch:type="MSArtboardGroup">
            <g id="Imported-Layers" sketch:type="MSLayerGroup">
                <g sketch:type="MSShapeGroup">
                    <path id="Fill-1460" fill="#828483"></path>
                    <path d="M403.169691,873.878535 L403.169691,873.875831 L403.169691,873.878535" id="Fill-1461" fill="#828483"></path>
                    <path id="Fill-1462" fill="#828483"></path>
                    <path id="Fill-1463" fill="#828483"></path>
                    <path id="Fill-1464" fill="#828483"></path>
                    <path d="M403.169691,1455.00304 L403.169691,1455.00034 L403.169691,1455.00304" id="Fill-1465" fill="#828483"></path>
                    <path id="Fill-1466" fill="#828483"></path>
                    <path d="M302.64531,1629.33904 L403.166991,1687.45014 L403.169691,1687.45014 L403.169691,1571.22524 L302.64531,1629.33904" id="Fill-1467" fill="#B7B5B1"></path>
                    <path d="M302.64531,931.984225 L403.166991,873.873127 L302.64531,815.762028 L302.64531,931.984225" id="Fill-1468" fill="#B7B5B1"></path>
                    <path id="Fill-1469" fill="#B7B5B1"></path>
                    <path d="M302.64531,931.984225 L403.166991,990.098028 L403.166991,873.873127 L302.64531,931.984225" id="Fill-1470" fill="#B7B5B1"></path>
                    <path d="M302.64531,1048.21183 L403.166991,990.098028 L302.64531,931.984225 L302.64531,1048.21183" id="Fill-1471" fill="#B7B5B1"></path>
                    <path id="Fill-1472" fill="#828483"></path>
                    <path d="M302.64531,1048.21183 L403.166991,1106.32293 L403.166991,990.098028 L302.64531,1048.21183" id="Fill-1473" fill="#B7B5B1"></path>
                    <path d="M302.64531,1164.43403 L403.166991,1106.32293 L302.64531,1048.21183 L302.64531,1164.43403" id="Fill-1474" fill="#B7B5B1"></path>
                    <path id="Fill-1475" fill="#828483"></path>
                    <path d="M302.64531,1164.43403 L403.166991,1222.54783 L403.166991,1106.32293 L302.64531,1164.43403" id="Fill-1476" fill="#92928F"></path>
                    <path d="M302.64531,1280.65893 L403.166991,1222.54783 L302.64531,1164.43403 L302.64531,1280.65893" id="Fill-1477" fill="#B7B5B1"></path>
                    <path id="Fill-1478" fill="#828483"></path>
                    <path d="M302.64531,1280.65893 L403.166991,1338.77273 L403.166991,1222.54783 L302.64531,1280.65893" id="Fill-1479" fill="#B7B5B1"></path>
                    <path id="Fill-1480" fill="#B7B5B1"></path>
                    <path d="M302.64531,1396.88654 L403.166991,1454.99763 L403.166991,1338.77273 L302.64531,1396.88654" id="Fill-1481" fill="#B7B5B1"></path>
                    <path d="M302.64531,1513.11144 L403.166991,1454.99763 L302.64531,1396.88654 L302.64531,1513.11144" id="Fill-1482" fill="#B7B5B1"></path>
                    <path id="Fill-1483" fill="#828483"></path>
                    <path d="M302.64531,1513.11144 L403.166991,1571.22254 L403.166991,1454.99763 L302.64531,1513.11144" id="Fill-1484" fill="#92928F"></path>
                    <path d="M302.64531,1513.11144 L302.64531,1629.33363 L403.166991,1571.22254 L302.64531,1513.11144" id="Fill-1485" fill="#B7B5B1"></path>
                    <path d="M202.12363,990.106141 L202.12633,990.103437 L202.12363,990.103437 L202.12363,990.106141" id="Fill-1486" fill="#828483"></path>
                    <path d="M202.12633,990.103437 L302.64531,1048.21724 L302.64531,931.992338 L202.12633,990.103437" id="Fill-1487" fill="#B7B5B1"></path>
                    <path d="M202.12363,757.659042 L202.12363,757.659042 L101.601949,815.770141 L202.12363,873.881239 L202.12363,757.659042" id="Fill-1488" fill="#D8D6CE"></path>
                    <path d="M202.12633,873.881239 L302.64531,815.770141 L202.12363,757.659042 L202.12363,873.881239 L202.12633,873.881239" id="Fill-1489" fill="#D8D6CE"></path>
                    <path d="M202.12363,873.881239 L202.12633,873.881239 L202.12363,873.881239" id="Fill-1490" fill="#828483"></path>
                    <path d="M202.12633,873.881239 L302.64531,931.992338 L302.64531,815.770141 L202.12633,873.881239" id="Fill-1491" fill="#B7B5B1"></path>
                    <path d="M202.12363,873.881239 L202.12363,990.106141 L302.64531,931.992338 L202.12633,873.881239 L202.12363,873.881239" id="Fill-1492" fill="#B7B5B1"></path>
                    <path d="M202.12633,1106.33104 L302.64531,1048.21724 L202.12363,990.103437 L202.12363,1106.33104 L202.12633,1106.33104" id="Fill-1493" fill="#B7B5B1"></path>
                    <path d="M202.12363,1106.33104 L202.12633,1106.33104 L202.12363,1106.33104" id="Fill-1494" fill="#828483"></path>
                    <path d="M202.12633,1106.33104 L302.64531,1164.44485 L302.64531,1048.21724 L202.12633,1106.33104" id="Fill-1495" fill="#B7B5B1"></path>
                    <path d="M202.12633,1222.55594 L302.64531,1164.44485 L202.12363,1106.33104 L202.12363,1222.55594 L202.12633,1222.55594" id="Fill-1496" fill="#92928F"></path>
                    <path d="M202.12363,1222.55594 L202.12633,1222.55594 L202.12363,1222.55594" id="Fill-1497" fill="#828483"></path>
                    <path d="M202.12633,1222.55594 L302.64531,1280.66434 L302.64531,1164.44485 L202.12633,1222.55594" id="Fill-1498" fill="#B7B5B1"></path>
                    <path d="M202.12633,1338.77814 L302.64531,1280.66704 L202.12363,1222.55594 L202.12363,1338.77814 L202.12633,1338.77814" id="Fill-1499" fill="#B7B5B1"></path>
                    <path d="M202.12363,1338.77814 L202.12633,1338.77814 L202.12363,1338.77814" id="Fill-1500" fill="#828483"></path>
                    <path id="Fill-1501" fill="#828483"></path>
                    <path d="M101.601949,1048.21724 L202.12363,1106.33104 L202.12363,990.106141 L101.601949,1048.21724" id="Fill-1502" fill="#B7B5B1"></path>
                    <path d="M101.601949,1164.44485 L202.12363,1106.33375 L101.601949,1048.21994 L101.601949,1164.44485" id="Fill-1503" fill="#B7B5B1"></path>
                    <path id="Fill-1504" fill="#828483"></path>
                    <path d="M101.601949,1164.44485 L202.12363,1222.55594 L202.12363,1106.33375 L101.601949,1164.44485" id="Fill-1505" fill="#92928F"></path>
                    <path d="M101.601949,1280.66704 L202.12363,1222.55594 L101.601949,1164.44485 L101.601949,1280.66704" id="Fill-1506" fill="#B7B5B1"></path>
                    <path id="Fill-1507" fill="#B7B5B1"></path>
                    <path d="M101.601949,1280.66704 L202.12363,1338.78085 L202.12363,1222.55594 L101.601949,1280.66704" id="Fill-1508" fill="#B7B5B1"></path>
                    <path id="Fill-1509" fill="#828483"></path>
                    <path d="M805.253713,873.878535 L805.253713,873.875831 L805.253713,873.878535" id="Fill-1510" fill="#828483"></path>
                    <path id="Fill-1511" fill="#828483"></path>
                    <path id="Fill-1512" fill="#828483"></path>
                    <path id="Fill-1513" fill="#828483"></path>
                    <path d="M805.253713,1455.00304 L805.253713,1455.00034 L805.253713,1455.00304" id="Fill-1514" fill="#828483"></path>
                    <path id="Fill-1515" fill="#828483"></path>
                    <path d="M704.732032,1629.33904 L805.253713,1687.45014 L805.253713,1571.22524 L704.732032,1629.33904" id="Fill-1516" fill="#B7B5B1"></path>
                    <path d="M704.732032,931.984225 L805.253713,873.873127 L704.729332,815.762028 L704.729332,931.984225 L704.732032,931.984225" id="Fill-1517" fill="#92928F"></path>
                    <path d="M704.729332,931.984225 L704.732032,931.984225 L704.729332,931.984225" id="Fill-1518" fill="#828483"></path>
                    <path d="M704.732032,931.984225 L805.253713,990.098028 L805.253713,873.873127 L704.732032,931.984225" id="Fill-1519" fill="#92928F"></path>
                    <path d="M704.732032,1048.21183 L805.253713,990.098028 L704.729332,931.984225 L704.729332,1048.21183 L704.732032,1048.21183" id="Fill-1520" fill="#92928F"></path>
                    <path d="M704.729332,1048.21183 L704.732032,1048.21183 L704.729332,1048.21183" id="Fill-1521" fill="#828483"></path>
                    <path d="M704.729332,1164.43403 L704.732032,1164.43403 L704.729332,1164.43403" id="Fill-1522" fill="#828483"></path>
                    <path d="M704.732032,1280.65893 L805.253713,1222.54783 L704.729332,1164.43403 L704.729332,1280.65893 L704.732032,1280.65893" id="Fill-1523" fill="#B7B5B1"></path>
                    <path d="M704.729332,1280.65893 L704.732032,1280.65893 L704.729332,1280.65893" id="Fill-1524" fill="#828483"></path>
                    <path d="M704.732032,1280.65893 L805.253713,1338.77273 L805.253713,1222.54783 L704.732032,1280.65893" id="Fill-1525" fill="#B7B5B1"></path>
                    <path d="M704.732032,1396.88654 L805.253713,1338.77273 L704.729332,1280.65893 L704.729332,1396.88654 L704.732032,1396.88654" id="Fill-1526" fill="#D8D6CE"></path>
                    <path d="M704.729332,1396.88654 L704.732032,1396.88654 L704.729332,1396.88654" id="Fill-1527" fill="#828483"></path>
                    <path d="M704.732032,1396.88654 L805.253713,1454.99763 L805.253713,1338.77273 L704.732032,1396.88654" id="Fill-1528" fill="#828483"></path>
                    <path d="M704.732032,1513.11144 L805.253713,1454.99763 L704.729332,1396.88654 L704.729332,1513.11144 L704.732032,1513.11144" id="Fill-1529" fill="#B7B5B1"></path>
                    <path d="M704.729332,1513.11144 L704.732032,1513.11144 L704.729332,1513.11144" id="Fill-1530" fill="#828483"></path>
                    <path d="M704.732032,1513.11144 L805.253713,1571.22254 L805.253713,1454.99763 L704.732032,1513.11144" id="Fill-1531" fill="#B7B5B1"></path>
                    <path d="M704.729332,1513.11144 L704.729332,1629.33363 L805.253713,1571.22254 L704.732032,1513.11144 L704.729332,1513.11144" id="Fill-1532" fill="#B7B5B1"></path>
                    <path d="M704.729332,1629.34715 L704.729332,1745.57206 L805.253713,1687.46096 L704.732032,1629.34715 L704.729332,1629.34715" id="Fill-1533" fill="#B7B5B1"></path>
                    <path d="M604.207651,990.106141 L604.210352,990.103437 L604.207651,990.103437 L604.207651,990.106141" id="Fill-1534" fill="#828483"></path>
                    <path d="M604.210352,990.103437 L704.729332,1048.21724 L704.729332,931.992338 L604.210352,990.103437" id="Fill-1535" fill="#D8D6CE"></path>
                    <path d="M604.207651,757.659042 L604.207651,757.659042 L503.691372,815.770141 L604.207651,873.881239 L604.207651,757.659042" id="Fill-1536" fill="#B7B5B1"></path>
                    <path d="M604.210352,873.881239 L704.729332,815.770141 L604.207651,757.659042 L604.207651,873.881239 L604.210352,873.881239" id="Fill-1537" fill="#B7B5B1"></path>
                    <path d="M604.207651,873.881239 L604.210352,873.881239 L604.207651,873.881239" id="Fill-1538" fill="#828483"></path>
                    <path d="M604.210352,873.881239 L704.729332,931.992338 L704.729332,815.770141 L604.210352,873.881239" id="Fill-1539" fill="#92928F"></path>
                    <path d="M604.207651,873.881239 L604.207651,990.106141 L704.729332,931.992338 L604.210352,873.881239 L604.207651,873.881239" id="Fill-1540" fill="#D8D6CE"></path>
                    <path d="M604.210352,1106.33104 L704.729332,1048.21724 L604.207651,990.103437 L604.207651,1106.33104 L604.210352,1106.33104" id="Fill-1541" fill="#B7B5B1"></path>
                    <path d="M604.207651,1106.33104 L604.210352,1106.33104 L604.207651,1106.33104" id="Fill-1542" fill="#828483"></path>
                    <path d="M604.210352,1106.33104 L704.729332,1164.44485 L704.729332,1048.21724 L604.210352,1106.33104" id="Fill-1543" fill="#B7B5B1"></path>
                    <path d="M604.210352,1222.55594 L704.729332,1164.44485 L604.207651,1106.33104 L604.207651,1222.55594 L604.210352,1222.55594" id="Fill-1544" fill="#B7B5B1"></path>
                    <path d="M604.207651,1222.55594 L604.210352,1222.55594 L604.207651,1222.55594" id="Fill-1545" fill="#828483"></path>
                    <path d="M604.210352,1222.55594 L704.729332,1280.66434 L704.729332,1164.44485 L604.210352,1222.55594" id="Fill-1546" fill="#D8D6CE"></path>
                    <path d="M604.210352,1338.77814 L704.729332,1280.66704 L604.207651,1222.55594 L604.207651,1338.77814 L604.210352,1338.77814" id="Fill-1547" fill="#D8D6CE"></path>
                    <path d="M604.207651,1338.77814 L604.210352,1338.77814 L604.207651,1338.77814" id="Fill-1548" fill="#828483"></path>
                    <path d="M604.210352,1338.77814 L704.729332,1396.89465 L704.729332,1280.66704 L604.210352,1338.77814" id="Fill-1549" fill="#D8D6CE"></path>
                    <path d="M604.210352,1455.00575 L704.729332,1396.89465 L604.207651,1338.77814 L604.207651,1455.00575 L604.210352,1455.00575" id="Fill-1550" fill="#B7B5B1"></path>
                    <path d="M604.207651,1455.00575 L604.210352,1455.00575 L604.207651,1455.00575" id="Fill-1551" fill="#828483"></path>
                    <path d="M604.210352,1455.00575 L704.729332,1513.11955 L704.729332,1396.89465 L604.210352,1455.00575" id="Fill-1552" fill="#B7B5B1"></path>
                    <path d="M604.210352,1571.22794 L704.729332,1513.11955 L604.207651,1455.00575 L604.207651,1571.22794 L604.210352,1571.22794" id="Fill-1553" fill="#B7B5B1"></path>
                    <path d="M604.207651,1571.23065 L604.210352,1571.22794 L604.207651,1571.22794 L604.207651,1571.23065" id="Fill-1554" fill="#828483"></path>
                    <path d="M604.210352,1571.22794 L704.729332,1629.34175 L704.729332,1513.11955 L604.210352,1571.22794" id="Fill-1555" fill="#B7B5B1"></path>
                    <path d="M503.691372,1629.34175 L604.207651,1687.45555 L604.207651,1571.23065 L503.691372,1629.34175" id="Fill-1556" fill="#B7B5B1"></path>
                    <path d="M604.207651,1571.23065 L604.207651,1687.45555 L704.729332,1629.34175 L604.210352,1571.22794 L604.207651,1571.23065" id="Fill-1557" fill="#CECECA"></path>
                    <path d="M503.691372,931.992338 L403.166991,873.881239 L403.166991,990.106141 L503.691372,931.992338" id="Fill-1558" fill="#D8D6CE"></path>
                    <path d="M503.691372,815.770141 L503.691372,815.770141 L403.166991,873.881239 L503.691372,931.992338 L503.691372,815.770141" id="Fill-1559" fill="#D8D6CE"></path>
                    <path d="M503.691372,931.992338 L604.207651,873.881239 L503.691372,815.770141 L503.691372,931.992338" id="Fill-1560" fill="#D8D6CE"></path>
                    <path id="Fill-1561" fill="#828483"></path>
                    <path d="M503.691372,931.992338 L604.207651,990.106141 L604.207651,873.881239 L503.691372,931.992338" id="Fill-1562" fill="#92928F"></path>
                    <path d="M503.691372,931.992338 L503.691372,931.992338 L403.166991,990.106141 L503.691372,1048.21724 L503.691372,931.992338" id="Fill-1563" fill="#D8D6CE"></path>
                    <path d="M503.691372,1048.21724 L604.207651,990.106141 L503.691372,931.992338 L503.691372,1048.21724" id="Fill-1564" fill="#92928F"></path>
                    <path id="Fill-1565" fill="#828483"></path>
                    <path d="M503.691372,1048.21724 L604.207651,1106.33104 L604.207651,990.106141 L503.691372,1048.21724" id="Fill-1566" fill="#B7B5B1"></path>
                    <path d="M503.691372,1164.44485 L604.207651,1106.33375 L503.691372,1048.21994 L503.691372,1164.44485" id="Fill-1567" fill="#92928F"></path>
                    <path id="Fill-1568" fill="#828483"></path>
                    <path d="M503.691372,1164.44485 L604.207651,1222.55594 L604.207651,1106.33375 L503.691372,1164.44485" id="Fill-1569" fill="#92928F"></path>
                    <path d="M503.691372,1280.66704 L403.166991,1222.55594 L403.166991,1338.78085 L503.691372,1280.66704" id="Fill-1570" fill="#B7B5B1"></path>
                    <path d="M503.691372,1164.44485 L503.691372,1164.44485 L403.166991,1222.55594 L503.691372,1280.66704 L503.691372,1164.44485" id="Fill-1571" fill="#B7B5B1"></path>
                    <path id="Fill-1572" fill="#828483"></path>
                    <path d="M503.691372,1280.66704 L604.207651,1338.78085 L604.207651,1222.55594 L503.691372,1280.66704" id="Fill-1573" fill="#D8D6CE"></path>
                    <path d="M503.691372,1280.66704 L503.691372,1280.66704 L403.166991,1338.78085 L503.691372,1396.89465 L503.691372,1280.66704" id="Fill-1574" fill="#B7B5B1"></path>
                    <path d="M503.691372,1396.89465 L604.207651,1338.78085 L503.691372,1280.66704 L503.691372,1396.89465" id="Fill-1575" fill="#B7B5B1"></path>
                    <path d="M503.691372,1280.15594 L604.207651,1222.04214 L503.691372,1163.92834 L503.691372,1280.15594" id="Fill-1576" fill="#B7B5B1"></path>
                    <path id="Fill-1577" fill="#828483"></path>
                    <path d="M503.691372,1396.89465 L604.207651,1455.00575 L604.207651,1338.78085 L503.691372,1396.89465" id="Fill-1578" fill="#828483"></path>
                    <path d="M503.691372,1513.11955 L604.207651,1455.00575 L503.691372,1396.89465 L503.691372,1513.11955" id="Fill-1579" fill="#828483"></path>
                    <path id="Fill-1580" fill="#828483"></path>
                    <path d="M503.691372,1513.11955 L604.207651,1571.23065 L604.207651,1455.00575 L503.691372,1513.11955" id="Fill-1581" fill="#B7B5B1"></path>
                    <path d="M503.691372,1513.11955 L503.691372,1629.34445 L604.207651,1571.23065 L503.691372,1513.11955" id="Fill-1582" fill="#B7B5B1"></path>
                    <path d="M403.166991,1106.33375 L503.691372,1048.21994 L403.166991,990.106141 L403.166991,1106.33375" id="Fill-1583" fill="#B7B5B1"></path>
                    <path d="M403.166991,1106.33375 L403.166991,1106.33104 L403.166991,1106.33375" id="Fill-1584" fill="#828483"></path>
                    <path d="M403.166991,1106.33375 L503.691372,1164.44485 L503.691372,1048.21994 L403.166991,1106.33375" id="Fill-1585" fill="#92928F"></path>
                    <path d="M403.166991,1106.33375 L403.166991,1222.55594 L503.691372,1164.44485 L403.166991,1106.33375" id="Fill-1586" fill="#B7B5B1"></path>
                    <path d="M403.166991,1455.00575 L503.691372,1396.89465 L403.166991,1338.78085 L403.166991,1455.00575" id="Fill-1587" fill="#B7B5B1"></path>
                    <path id="Fill-1588" fill="#828483"></path>
                    <path d="M403.166991,1455.00575 L503.691372,1513.11955 L503.691372,1396.89465 L403.166991,1455.00575" id="Fill-1589" fill="#B7B5B1"></path>
                    <path d="M403.166991,1571.23065 L503.691372,1513.11955 L403.166991,1455.00575 L403.166991,1571.23065" id="Fill-1590" fill="#92928F"></path>
                    <path id="Fill-1591" fill="#828483"></path>
                    <path d="M403.166991,1571.23065 L503.691372,1629.34445 L503.691372,1513.11955 L403.166991,1571.23065" id="Fill-1592" fill="#92928F"></path>
                    <path d="M403.166991,1571.23065 L403.166991,1687.45555 L503.691372,1629.34445 L403.166991,1571.23065" id="Fill-1593" fill="#92928F"></path>
                    <path d="M805.251012,1803.68045 L805.253713,1803.68045 L805.251012,1803.68045" id="Fill-1594" fill="#828483"></path>
                    <path id="Fill-1595" fill="#D8D6CE"></path>
                    <path d="M704.732032,1861.79425 L805.253713,1919.90806 L805.253713,1803.68045 L704.732032,1861.79425" id="Fill-1596" fill="#D8D6CE"></path>
                    <path d="M704.732032,1629.34445 L704.732032,1629.34445 L604.210352,1687.45555 L704.732032,1745.56665 L704.732032,1629.34445" id="Fill-1597" fill="#CECECA"></path>
                    <path id="Fill-1598" fill="#828483"></path>
                    <path d="M704.732032,1745.56665 L805.253713,1803.68045 L805.253713,1687.45555 L704.732032,1745.56665" id="Fill-1599" fill="#D8D6CE"></path>
                    <path d="M704.732032,1745.56665 L704.732032,1861.79425 L805.253713,1803.68045 L704.732032,1745.56665" id="Fill-1600" fill="#D8D6CE"></path>
                    <path d="M503.691372,1629.34715 L503.691372,1629.34715 L403.166991,1687.46096 L503.691372,1745.57206 L503.691372,1629.34715" id="Fill-1601" fill="#B7B5B1"></path>
                    <path d="M503.691372,1745.57206 L604.210352,1687.46096 L503.691372,1629.34715 L503.691372,1745.57206" id="Fill-1602" fill="#B7B5B1"></path>
                    <path id="Fill-1603" fill="#D8D6CE"></path>
                    <path id="Fill-1604" fill="#828483"></path>
                    <path d="M1207.34043,873.878535 L1207.34043,873.875831 L1207.34043,873.878535" id="Fill-1605" fill="#828483"></path>
                    <path id="Fill-1606" fill="#828483"></path>
                    <path id="Fill-1607" fill="#828483"></path>
                    <path id="Fill-1608" fill="#828483"></path>
                    <path d="M1207.34043,1455.00304 L1207.34043,1455.00034 L1207.34043,1455.00304" id="Fill-1609" fill="#828483"></path>
                    <path id="Fill-1610" fill="#828483"></path>
                    <path d="M1106.81875,1629.33904 L1207.34043,1687.45014 L1207.34043,1571.22524 L1106.81875,1629.33904" id="Fill-1611" fill="#828483"></path>
                    <path d="M1106.81875,931.984225 L1207.34043,873.873127 L1106.81875,815.762028 L1106.81875,931.984225" id="Fill-1612" fill="#B7B5B1"></path>
                    <path id="Fill-1613" fill="#828483"></path>
                    <path d="M1106.81875,931.984225 L1207.34043,990.098028 L1207.34043,873.873127 L1106.81875,931.984225" id="Fill-1614" fill="#B7B5B1"></path>
                    <path d="M1106.81875,1048.21183 L1207.34043,990.098028 L1106.81875,931.984225 L1106.81875,1048.21183" id="Fill-1615" fill="#B7B5B1"></path>
                    <path id="Fill-1616" fill="#828483"></path>
                    <path d="M1106.81875,1048.21183 L1207.34043,1106.32293 L1207.34043,990.098028 L1106.81875,1048.21183" id="Fill-1617" fill="#B7B5B1"></path>
                    <path d="M1106.81875,1164.43403 L1207.34043,1106.32293 L1106.81875,1048.21183 L1106.81875,1164.43403" id="Fill-1618" fill="#CECECA"></path>
                    <path d="M1307.86212,1164.43403 L1408.3865,1106.32293 L1307.86212,1048.21183 L1307.86212,1164.43403" id="Fill-1619" fill="#CECECA"></path>
                    <path id="Fill-1620" fill="#828483"></path>
                    <path d="M1106.81875,1164.43403 L1207.34043,1222.54783 L1207.34043,1106.32293 L1106.81875,1164.43403" id="Fill-1621" fill="#B7B5B1"></path>
                    <path d="M1106.81875,1280.65893 L1207.34043,1222.54783 L1106.81875,1164.43403 L1106.81875,1280.65893" id="Fill-1622" fill="#B7B5B1"></path>
                    <path id="Fill-1623" fill="#828483"></path>
                    <path d="M1106.81875,1280.65893 L1207.34043,1338.77273 L1207.34043,1222.54783 L1106.81875,1280.65893" id="Fill-1624" fill="#828483"></path>
                    <path id="Fill-1625" fill="#828483"></path>
                    <path d="M1106.81875,1513.11144 L1207.34043,1454.99763 L1106.81875,1396.88654 L1106.81875,1513.11144" id="Fill-1626" fill="#D8D6CE"></path>
                    <path id="Fill-1627" fill="#828483"></path>
                    <path d="M1106.81875,1513.11144 L1207.34043,1571.22254 L1207.34043,1454.99763 L1106.81875,1513.11144" id="Fill-1628" fill="#D8D6CE"></path>
                    <path d="M1106.81875,1513.11144 L1106.81875,1629.33363 L1207.34043,1571.22254 L1106.81875,1513.11144" id="Fill-1629" fill="#828483"></path>
                    <path d="M1106.81875,1629.34715 L1106.81875,1745.57206 L1207.34043,1687.46096 L1106.81875,1629.34715" id="Fill-1630" fill="#828483"></path>
                    <path d="M1006.29437,990.106141 L1006.29437,990.103437 L1006.29437,990.106141" id="Fill-1631" fill="#828483"></path>
                    <path d="M1006.29437,990.103437 L1106.81875,1048.21724 L1106.81875,931.992338 L1006.29437,990.103437" id="Fill-1632" fill="#B7B5B1"></path>
                    <path d="M1006.29437,757.659042 L1006.29437,757.659042 L905.775393,815.770141 L1006.29437,873.881239 L1006.29437,757.659042" id="Fill-1633" fill="#828483"></path>
                    <path d="M1006.29437,873.881239 L1106.81875,815.770141 L1006.29437,757.659042 L1006.29437,873.881239" id="Fill-1634" fill="#828483"></path>
                    <path id="Fill-1635" fill="#828483"></path>
                    <path d="M1006.29437,873.881239 L1106.81875,931.992338 L1106.81875,815.770141 L1006.29437,873.881239" id="Fill-1636" fill="#828483"></path>
                    <path d="M1006.29437,873.881239 L1006.29437,990.106141 L1106.81875,931.992338 L1006.29437,873.881239" id="Fill-1637" fill="#828483"></path>
                    <path d="M1006.29437,1106.33104 L1106.81875,1048.21724 L1006.29437,990.103437 L1006.29437,1106.33104" id="Fill-1638" fill="#92928F"></path>
                    <path id="Fill-1639" fill="#828483"></path>
                    <path d="M1006.29437,1106.33104 L1106.81875,1164.44485 L1106.81875,1048.21724 L1006.29437,1106.33104" id="Fill-1640" fill="#92928F"></path>
                    <path d="M1006.29437,1222.55594 L1106.81875,1164.44485 L1006.29437,1106.33104 L1006.29437,1222.55594" id="Fill-1641" fill="#92928F"></path>
                    <path id="Fill-1642" fill="#828483"></path>
                    <path d="M1006.29437,1222.55594 L1106.81875,1280.66434 L1106.81875,1164.44485 L1006.29437,1222.55594" id="Fill-1643" fill="#CECECA"></path>
                    <path d="M1006.29437,1338.77814 L1106.81875,1280.66704 L1006.29437,1222.55594 L1006.29437,1338.77814" id="Fill-1644" fill="#CECECA"></path>
                    <path id="Fill-1645" fill="#828483"></path>
                    <path d="M1006.29437,1455.00575 L1106.81875,1396.89465 L1006.29437,1338.77814 L1006.29437,1455.00575" id="Fill-1646" fill="#B7B5B1"></path>
                    <path id="Fill-1647" fill="#828483"></path>
                    <path d="M1006.29437,1455.00575 L1106.81875,1513.11955 L1106.81875,1396.89465 L1006.29437,1455.00575" id="Fill-1648" fill="#828483"></path>
                    <path d="M1006.29437,1571.22794 L1106.81875,1513.11955 L1006.29437,1455.00575 L1006.29437,1571.22794" id="Fill-1649" fill="#828483"></path>
                    <path d="M1006.29437,1571.23065 L1006.29437,1571.22794 L1006.29437,1571.23065" id="Fill-1650" fill="#828483"></path>
                    <path d="M1006.29437,1571.22794 L1106.81875,1629.34175 L1106.81875,1513.11955 L1006.29437,1571.22794" id="Fill-1651" fill="#828483"></path>
                    <path d="M905.775393,1629.34175 L1006.29437,1687.45555 L1006.29437,1571.23065 L905.775393,1629.34175" id="Fill-1652" fill="#D8D6CE"></path>
                    <path d="M1006.29437,1571.23065 L1006.29437,1687.45555 L1106.81875,1629.34175 L1006.29437,1571.22794 L1006.29437,1571.23065" id="Fill-1653" fill="#B7B5B1"></path>
                    <path d="M905.775393,931.992338 L1006.29437,873.881239 L905.775393,815.770141 L905.775393,931.992338" id="Fill-1654" fill="#B7B5B1"></path>
                    <path id="Fill-1655" fill="#828483"></path>
                    <path d="M905.775393,931.992338 L1006.29437,990.106141 L1006.29437,873.881239 L905.775393,931.992338" id="Fill-1656" fill="#B7B5B1"></path>
                    <path d="M905.775393,931.992338 L905.775393,931.992338 L805.251012,990.106141 L905.775393,1048.21724 L905.775393,931.992338" id="Fill-1657" fill="#B7B5B1"></path>
                    <path d="M905.775393,1048.21994 L905.775393,1048.21994 L805.251012,1106.33375 L905.775393,1164.44485 L905.775393,1048.21994" id="Fill-1658" fill="#B7B5B1"></path>
                    <path d="M905.775393,1048.21724 L1006.29437,990.106141 L905.775393,931.992338 L905.775393,1048.21724" id="Fill-1659" fill="#B7B5B1"></path>
                    <path id="Fill-1660" fill="#828483"></path>
                    <path d="M905.775393,1048.21724 L1006.29437,1106.33104 L1006.29437,990.106141 L905.775393,1048.21724" id="Fill-1661" fill="#B7B5B1"></path>
                    <path d="M905.775393,1164.44485 L1006.29437,1106.33375 L905.775393,1048.21994 L905.775393,1164.44485" id="Fill-1662" fill="#B7B5B1"></path>
                    <path id="Fill-1663" fill="#828483"></path>
                    <path d="M905.775393,1164.44485 L1006.29437,1222.55594 L1006.29437,1106.33375 L905.775393,1164.44485" id="Fill-1664" fill="#92928F"></path>
                    <path d="M805.248311,1222.55594 L905.772693,1164.44485 L805.248311,1106.33104 L805.248311,1222.55594" id="Fill-1665" fill="#92928F"></path>
                    <path d="M805.248311,1222.55594 L905.772693,1280.66434 L905.772693,1164.44485 L805.248311,1222.55594" id="Fill-1666" fill="#CECECA"></path>
                    <path d="M704.729332,1164.44485 L805.248311,1222.55594 L805.248311,1106.33375 L704.729332,1164.44485" id="Fill-1667" fill="#92928F"></path>
                    <path d="M905.775393,1280.66704 L805.251012,1222.55594 L805.251012,1338.78085 L905.775393,1280.66704" id="Fill-1668" fill="#828483"></path>
                    <path d="M905.775393,1280.66704 L1006.29437,1222.55594 L905.775393,1164.44485 L905.775393,1280.66704" id="Fill-1669" fill="#B7B5B1"></path>
                    <path id="Fill-1670" fill="#828483"></path>
                    <path d="M905.775393,1280.66704 L1006.29437,1338.78085 L1006.29437,1222.55594 L905.775393,1280.66704" id="Fill-1671" fill="#B7B5B1"></path>
                    <path d="M905.775393,1280.66704 L905.775393,1280.66704 L805.251012,1338.78085 L905.775393,1396.89465 L905.775393,1280.66704" id="Fill-1672" fill="#92928F"></path>
                    <path d="M905.775393,1396.89465 L1006.29437,1338.78085 L905.775393,1280.66704 L905.775393,1396.89465" id="Fill-1673" fill="#92928F"></path>
                    <path id="Fill-1674" fill="#828483"></path>
                    <path d="M905.980644,1396.65668 L1006.08912,1454.5298 L1006.08912,1338.78085 L905.980644,1396.65668" id="Fill-1675" fill="#B7B5B1"></path>
                    <path d="M905.980644,1512.40563 L1006.08912,1454.5298 L905.980644,1396.65668 L905.980644,1512.40563" id="Fill-1676" fill="#B7B5B1"></path>
                    <path id="Fill-1677" fill="#828483"></path>
                    <path d="M905.775393,1513.11955 L1006.29437,1571.23065 L1006.29437,1455.00575 L905.775393,1513.11955" id="Fill-1678" fill="#B7B5B1"></path>
                    <path d="M905.775393,1513.11955 L905.775393,1629.34445 L1006.29437,1571.23065 L905.775393,1513.11955" id="Fill-1679" fill="#D8D6CE"></path>
                    <path d="M805.251012,1106.33375 L905.775393,1048.21994 L805.251012,990.106141 L805.251012,1106.33375" id="Fill-1680" fill="#B7B5B1"></path>
                    <path d="M805.251012,1106.33375 L805.251012,1106.33104 L805.251012,1106.33375" id="Fill-1681" fill="#828483"></path>
                    <path d="M805.251012,1455.00575 L905.775393,1396.89465 L805.251012,1338.78085 L805.251012,1455.00575" id="Fill-1682" fill="#828483"></path>
                    <path id="Fill-1683" fill="#828483"></path>
                    <path d="M805.251012,1455.00575 L905.775393,1513.11955 L905.775393,1396.89465 L805.251012,1455.00575" id="Fill-1684" fill="#828483"></path>
                    <path d="M805.251012,1571.23065 L905.775393,1513.11955 L805.251012,1455.00575 L805.251012,1571.23065" id="Fill-1685" fill="#828483"></path>
                    <path id="Fill-1686" fill="#828483"></path>
                    <path d="M805.251012,1571.23065 L905.775393,1629.34445 L905.775393,1513.11955 L805.251012,1571.23065" id="Fill-1687" fill="#D8D6CE"></path>
                    <path d="M805.251012,1571.23065 L805.251012,1687.45555 L905.775393,1629.34445 L805.251012,1571.23065" id="Fill-1688" fill="#D8D6CE"></path>
                    <path id="Fill-1689" fill="#828483"></path>
                    <path id="Fill-1690" fill="#828483"></path>
                    <path d="M1106.81875,1629.34445 L1106.81875,1629.34445 L1006.29707,1687.45555 L1106.81875,1745.56665 L1106.81875,1629.34445" id="Fill-1691" fill="#B7B5B1"></path>
                    <path id="Fill-1692" fill="#828483"></path>
                    <path d="M1106.81875,1745.56665 L1207.34043,1803.68045 L1207.34043,1687.45555 L1106.81875,1745.56665" id="Fill-1693" fill="#D8D6CE"></path>
                    <path d="M1006.29707,1803.67504 L1106.81875,1745.56124 L1006.29707,1687.45014 L1006.29707,1803.67504" id="Fill-1694" fill="#D8D6CE"></path>
                    <path id="Fill-1695" fill="#828483"></path>
                    <path d="M1006.29707,1803.67504 L1106.81875,1861.78885 L1106.81875,1745.56124 L1006.29707,1803.67504" id="Fill-1696" fill="#D8D6CE"></path>
                    <path d="M1006.29707,1919.90265 L1106.81875,1861.78885 L1006.29707,1803.67504 L1006.29707,1919.90265" id="Fill-1697" fill="#D8D6CE"></path>
                    <path id="Fill-1698" fill="#D8D6CE"></path>
                    <path d="M905.775393,1861.79425 L1006.29437,1919.90806 L1006.29437,1803.68586 L905.775393,1861.79425" id="Fill-1699" fill="#D8D6CE"></path>
                    <path d="M905.775393,1629.34715 L905.775393,1629.34715 L805.251012,1687.46096 L905.775393,1745.57206 L905.775393,1629.34715" id="Fill-1700" fill="#B7B5B1"></path>
                    <path d="M905.775393,1745.57206 L1006.29437,1687.46096 L905.775393,1629.34715 L905.775393,1745.57206" id="Fill-1701" fill="#B7B5B1"></path>
                    <path id="Fill-1702" fill="#D8D6CE"></path>
                    <path d="M905.775393,1745.57206 L1006.29437,1803.68586 L1006.29437,1687.46096 L905.775393,1745.57206" id="Fill-1703" fill="#B7B5B1"></path>
                    <path d="M905.775393,1745.57206 L905.775393,1861.79696 L1006.29437,1803.68586 L905.775393,1745.57206" id="Fill-1704" fill="#B7B5B1"></path>
                    <path d="M805.251012,1803.68586 L905.775393,1745.57206 L805.251012,1687.46096 L805.251012,1803.68586" id="Fill-1705" fill="#B7B5B1"></path>
                    <path id="Fill-1706" fill="#828483"></path>
                    <path d="M805.251012,1803.68586 L905.775393,1861.79696 L905.775393,1745.57206 L805.251012,1803.68586" id="Fill-1707" fill="#B7B5B1"></path>
                    <path d="M805.251012,1919.90806 L905.775393,1861.79696 L805.251012,1803.68586 L805.251012,1919.90806" id="Fill-1708" fill="#D8D6CE"></path>
                    <path id="Fill-1709" fill="#828483"></path>
                    <path d="M1609.42716,873.878535 L1609.42716,873.875831 L1609.42716,873.878535" id="Fill-1710" fill="#828483"></path>
                    <path id="Fill-1711" fill="#828483"></path>
                    <path id="Fill-1712" fill="#828483"></path>
                    <path id="Fill-1713" fill="#828483"></path>
                    <path d="M1609.42716,1455.00304 L1609.42716,1455.00034 L1609.42716,1455.00304" id="Fill-1714" fill="#828483"></path>
                    <path id="Fill-1715" fill="#828483"></path>
                    <path d="M1508.90548,931.984225 L1609.42716,873.873127 L1508.90548,815.762028 L1508.90548,931.984225" id="Fill-1716" fill="#828483"></path>
                    <path id="Fill-1717" fill="#828483"></path>
                    <path d="M1508.90548,931.984225 L1609.42716,990.098028 L1609.42716,873.873127 L1508.90548,931.984225" id="Fill-1718" fill="#828483"></path>
                    <path d="M1508.90548,1048.21183 L1609.42716,990.098028 L1508.90548,931.984225 L1508.90548,1048.21183" id="Fill-1719" fill="#B7B5B1"></path>
                    <path id="Fill-1720" fill="#828483"></path>
                    <path d="M1508.90548,1048.21183 L1609.42716,1106.32293 L1609.42716,990.098028 L1508.90548,1048.21183" id="Fill-1721" fill="#828483"></path>
                    <path d="M1508.90548,1164.43403 L1609.42716,1106.32293 L1508.90548,1048.21183 L1508.90548,1164.43403" id="Fill-1722" fill="#828483"></path>
                    <path id="Fill-1723" fill="#828483"></path>
                    <path d="M1508.90548,1164.43403 L1609.42716,1222.54783 L1609.42716,1106.32293 L1508.90548,1164.43403" id="Fill-1724" fill="#B7B5B1"></path>
                    <path d="M1508.90548,1280.65893 L1609.42716,1222.54783 L1508.90548,1164.43403 L1508.90548,1280.65893" id="Fill-1725" fill="#828483"></path>
                    <path id="Fill-1726" fill="#828483"></path>
                    <path d="M1508.90548,1280.65893 L1609.42716,1338.77273 L1609.42716,1222.54783 L1508.90548,1280.65893" id="Fill-1727" fill="#828483"></path>
                    <path d="M1508.90548,1396.88654 L1609.42716,1338.77273 L1508.90548,1280.65893 L1508.90548,1396.88654" id="Fill-1728" fill="#B7B5B1"></path>
                    <path id="Fill-1729" fill="#828483"></path>
                    <path d="M1508.90548,1396.88654 L1609.42716,1454.99763 L1609.42716,1338.77273 L1508.90548,1396.88654" id="Fill-1730" fill="#828483"></path>
                    <path d="M1508.90548,1513.11144 L1609.42716,1454.99763 L1508.90548,1396.88654 L1508.90548,1513.11144" id="Fill-1731" fill="#B7B5B1"></path>
                    <path id="Fill-1732" fill="#828483"></path>
                    <path d="M1508.90548,1513.11144 L1609.42716,1571.22254 L1609.42716,1454.99763 L1508.90548,1513.11144" id="Fill-1733" fill="#B7B5B1"></path>
                    <path d="M1508.90548,1513.11144 L1508.90548,1629.33363 L1609.42716,1571.22254 L1508.90548,1513.11144" id="Fill-1734" fill="#92928F"></path>
                    <path d="M1408.3838,990.106141 L1408.3838,990.103437 L1408.3838,990.106141" id="Fill-1735" fill="#828483"></path>
                    <path d="M1408.3838,990.103437 L1508.90548,1048.21724 L1508.90548,931.992338 L1408.3838,990.103437" id="Fill-1736" fill="#828483"></path>
                    <path d="M1408.3838,757.659042 L1408.3838,757.659042 L1307.86212,815.770141 L1408.3838,873.881239 L1408.3838,757.659042" id="Fill-1737" fill="#92928F"></path>
                    <path d="M1408.3838,873.881239 L1508.90548,815.770141 L1408.3838,757.659042 L1408.3838,873.881239" id="Fill-1738" fill="#828483"></path>
                    <path id="Fill-1739" fill="#828483"></path>
                    <path d="M1408.3838,873.881239 L1508.90548,931.992338 L1508.90548,815.770141 L1408.3838,873.881239" id="Fill-1740" fill="#828483"></path>
                    <path d="M1408.3838,873.881239 L1408.3838,990.106141 L1508.90548,931.992338 L1408.3838,873.881239" id="Fill-1741" fill="#B7B5B1"></path>
                    <path d="M1408.3838,1106.33104 L1508.90548,1048.21724 L1408.3838,990.103437 L1408.3838,1106.33104" id="Fill-1742" fill="#B7B5B1"></path>
                    <path id="Fill-1743" fill="#828483"></path>
                    <path d="M1408.3838,1106.33104 L1508.90548,1164.44485 L1508.90548,1048.21724 L1408.3838,1106.33104" id="Fill-1744" fill="#B7B5B1"></path>
                    <path id="Fill-1745" fill="#828483"></path>
                    <path d="M1408.3838,1222.55594 L1508.90548,1280.66434 L1508.90548,1164.44485 L1408.3838,1222.55594" id="Fill-1746" fill="#B7B5B1"></path>
                    <path d="M1408.3838,1338.77814 L1508.90548,1280.66704 L1408.3838,1222.55594 L1408.3838,1338.77814" id="Fill-1747" fill="#B7B5B1"></path>
                    <path id="Fill-1748" fill="#828483"></path>
                    <path d="M1408.3838,1338.77814 L1508.90548,1396.89465 L1508.90548,1280.66704 L1408.3838,1338.77814" id="Fill-1749" fill="#B7B5B1"></path>
                    <path d="M1408.3838,1455.00575 L1508.90548,1396.89465 L1408.3838,1338.77814 L1408.3838,1455.00575" id="Fill-1750" fill="#92928F"></path>
                    <path id="Fill-1751" fill="#828483"></path>
                    <path d="M1408.3838,1455.00575 L1508.90548,1513.11955 L1508.90548,1396.89465 L1408.3838,1455.00575" id="Fill-1752" fill="#92928F"></path>
                    <path d="M1408.3838,1571.22794 L1508.90548,1513.11955 L1408.3838,1455.00575 L1408.3838,1571.22794" id="Fill-1753" fill="#828483"></path>
                    <path d="M1408.3838,1571.23065 L1408.3838,1571.22794 L1408.3838,1571.23065" id="Fill-1754" fill="#828483"></path>
                    <path d="M1408.3838,1571.22794 L1508.90548,1629.34175 L1508.90548,1513.11955 L1408.3838,1571.22794" id="Fill-1755" fill="#B7B5B1"></path>
                    <path d="M1307.86212,1629.34175 L1408.3838,1687.45555 L1408.3838,1571.23065 L1307.86212,1629.34175" id="Fill-1756" fill="#B7B5B1"></path>
                    <path d="M1408.3838,1571.23065 L1408.3838,1687.45555 L1508.90548,1629.34175 L1408.3838,1571.22794 L1408.3838,1571.23065" id="Fill-1757" fill="#B7B5B1"></path>
                    <path d="M1307.86212,931.992338 L1207.34043,873.881239 L1207.34043,990.106141 L1307.86212,931.992338" id="Fill-1758" fill="#B7B5B1"></path>
                    <path d="M1307.86212,815.770141 L1307.86212,815.770141 L1207.34043,873.881239 L1307.86212,931.992338 L1307.86212,815.770141" id="Fill-1759" fill="#92928F"></path>
                    <path d="M1307.86212,931.992338 L1408.3838,873.881239 L1307.86212,815.770141 L1307.86212,931.992338" id="Fill-1760" fill="#92928F"></path>
                    <path id="Fill-1761" fill="#828483"></path>
                    <path d="M1307.86212,931.992338 L1408.3838,990.106141 L1408.3838,873.881239 L1307.86212,931.992338" id="Fill-1762" fill="#CECECA"></path>
                    <path d="M1307.86212,931.992338 L1307.86212,931.992338 L1207.34043,990.106141 L1307.86212,1048.21724 L1307.86212,931.992338" id="Fill-1763" fill="#B7B5B1"></path>
                    <path d="M1307.86212,1048.21724 L1408.3838,990.106141 L1307.86212,931.992338 L1307.86212,1048.21724" id="Fill-1764" fill="#CECECA"></path>
                    <path id="Fill-1765" fill="#828483"></path>
                    <path d="M1307.86212,1048.21724 L1408.3838,1106.33104 L1408.3838,990.106141 L1307.86212,1048.21724" id="Fill-1766" fill="#CECECA"></path>
                    <path d="M1307.86212,1164.44485 L1408.3838,1222.55594 L1408.3838,1106.33104 L1307.86212,1164.44485" id="Fill-1767" fill="#FFFFFF"></path>
                    <path id="Fill-1768" fill="#828483"></path>
                    <path d="M1307.86212,1280.66704 L1207.34043,1222.55594 L1207.34043,1338.78085 L1307.86212,1280.66704" id="Fill-1769" fill="#828483"></path>
                    <path d="M1307.86212,1164.44485 L1307.86212,1164.44485 L1207.34043,1222.55594 L1307.86212,1280.66704 L1307.86212,1164.44485" id="Fill-1770" fill="#828483"></path>
                    <path d="M1307.86212,1280.66704 L1408.3838,1222.55594 L1307.86212,1164.44485 L1307.86212,1280.66704" id="Fill-1771" fill="#D8D6CE"></path>
                    <path id="Fill-1772" fill="#828483"></path>
                    <path d="M1307.86212,1280.66704 L1408.3838,1338.78085 L1408.3838,1222.55594 L1307.86212,1280.66704" id="Fill-1773" fill="#92928F"></path>
                    <path d="M1307.86212,1280.66704 L1307.86212,1280.66704 L1207.34043,1338.78085 L1307.86212,1396.89465 L1307.86212,1280.66704" id="Fill-1774" fill="#D8D6CE"></path>
                    <path d="M1307.86212,1396.89465 L1408.3838,1338.78085 L1307.86212,1280.66704 L1307.86212,1396.89465" id="Fill-1775" fill="#92928F"></path>
                    <path id="Fill-1776" fill="#828483"></path>
                    <path d="M1307.86212,1396.89465 L1408.3838,1455.00575 L1408.3838,1338.78085 L1307.86212,1396.89465" id="Fill-1777" fill="#92928F"></path>
                    <path d="M1307.86212,1513.11955 L1408.3838,1455.00575 L1307.86212,1396.89465 L1307.86212,1513.11955" id="Fill-1778" fill="#B7B5B1"></path>
                    <path id="Fill-1779" fill="#828483"></path>
                    <path d="M1307.86212,1513.11955 L1408.3838,1571.23065 L1408.3838,1455.00575 L1307.86212,1513.11955" id="Fill-1780" fill="#828483"></path>
                    <path d="M1307.86212,1513.11955 L1307.86212,1629.34445 L1408.3838,1571.23065 L1307.86212,1513.11955" id="Fill-1781" fill="#B7B5B1"></path>
                    <path d="M1207.34043,1106.33375 L1307.86212,1048.21994 L1207.34043,990.106141 L1207.34043,1106.33375" id="Fill-1782" fill="#B7B5B1"></path>
                    <path d="M1207.34043,1106.33375 L1207.34043,1106.33104 L1207.34043,1106.33375" id="Fill-1783" fill="#828483"></path>
                    <path d="M1207.34043,1106.33375 L1307.86212,1164.44485 L1307.86212,1048.21994 L1207.34043,1106.33375" id="Fill-1784" fill="#CECECA"></path>
                    <path d="M1207.34043,1106.33375 L1207.34043,1222.55594 L1307.86212,1164.44485 L1207.34043,1106.33375" id="Fill-1785" fill="#B7B5B1"></path>
                    <path d="M1408.3838,1106.33375 L1408.3838,1222.55594 L1508.90548,1164.44485 L1408.3838,1106.33375" id="Fill-1786" fill="#FFFFFF"></path>
                    <path d="M1207.34043,1455.00575 L1307.86212,1396.89465 L1207.34043,1338.78085 L1207.34043,1455.00575" id="Fill-1787" fill="#D8D6CE"></path>
                    <path id="Fill-1788" fill="#828483"></path>
                    <path d="M1207.34043,1455.00575 L1307.86212,1513.11955 L1307.86212,1396.89465 L1207.34043,1455.00575" id="Fill-1789" fill="#B7B5B1"></path>
                    <path d="M1207.34043,1571.23065 L1307.86212,1513.11955 L1207.34043,1455.00575 L1207.34043,1571.23065" id="Fill-1790" fill="#B7B5B1"></path>
                    <path id="Fill-1791" fill="#828483"></path>
                    <path d="M1207.34043,1571.23065 L1307.86212,1629.34445 L1307.86212,1513.11955 L1207.34043,1571.23065" id="Fill-1792" fill="#B7B5B1"></path>
                    <path d="M1207.34043,1571.23065 L1207.34043,1687.45555 L1307.86212,1629.34445 L1207.34043,1571.23065" id="Fill-1793" fill="#D8D6CE"></path>
                    <path id="Fill-1794" fill="#828483"></path>
                    <path id="Fill-1795" fill="#B7B5B1"></path>
                    <path d="M1307.86212,1629.34715 L1307.86212,1629.34715 L1207.34043,1687.46096 L1307.86212,1745.57206 L1307.86212,1629.34715" id="Fill-1796" fill="#92928F"></path>
                    <path d="M1307.86212,1745.57206 L1408.3838,1687.46096 L1307.86212,1629.34715 L1307.86212,1745.57206" id="Fill-1797" fill="#B7B5B1"></path>
                    <path id="Fill-1798" fill="#B7B5B1"></path>
                    <path d="M1307.86212,1745.57206 L1408.3838,1803.68586 L1408.3838,1687.46096 L1307.86212,1745.57206" id="Fill-1799" fill="#B7B5B1"></path>
                    <path d="M1307.86212,1745.57206 L1307.86212,1861.79696 L1408.3838,1803.68586 L1307.86212,1745.57206" id="Fill-1800" fill="#B7B5B1"></path>
                    <path d="M1207.34043,1803.68586 L1307.86212,1745.57206 L1207.34043,1687.46096 L1207.34043,1803.68586" id="Fill-1801" fill="#92928F"></path>
                    <path id="Fill-1802" fill="#828483"></path>
                    <path d="M1207.34043,1803.68586 L1307.86212,1861.79696 L1307.86212,1745.57206 L1207.34043,1803.68586" id="Fill-1803" fill="#B7B5B1"></path>
                    <path id="Fill-1804" fill="#828483"></path>
                    <path id="Fill-1805" fill="#828483"></path>
                    <path id="Fill-1806" fill="#B7B5B1"></path>
                    <path id="Fill-1807" fill="#D8D6CE"></path>
                    <path id="Fill-1808" fill="#D8D6CE"></path>
                    <path d="M1810.46782,990.106141 L1810.47052,990.103437 L1810.46782,990.103437 L1810.46782,990.106141" id="Fill-1809" fill="#828483"></path>
                    <path d="M1810.47052,990.103437 L1910.9895,1048.21724 L1910.9895,931.992338 L1810.47052,990.103437" id="Fill-1810" fill="#D8D6CE"></path>
                    <path d="M1810.46782,757.659042 L1810.46782,757.659042 L1709.94614,815.770141 L1810.46782,873.881239 L1810.46782,757.659042" id="Fill-1811" fill="#92928F"></path>
                    <path d="M1810.47052,873.881239 L1910.9895,815.770141 L1810.46782,757.659042 L1810.46782,873.881239 L1810.47052,873.881239" id="Fill-1812" fill="#B7B5B1"></path>
                    <path d="M1810.46782,873.881239 L1810.47052,873.881239 L1810.46782,873.881239" id="Fill-1813" fill="#828483"></path>
                    <path d="M1810.47052,873.881239 L1910.9895,931.992338 L1910.9895,815.770141 L1810.47052,873.881239" id="Fill-1814" fill="#B7B5B1"></path>
                    <path d="M1810.46782,873.881239 L1810.46782,990.106141 L1910.9895,931.992338 L1810.47052,873.881239 L1810.46782,873.881239" id="Fill-1815" fill="#D8D6CE"></path>
                    <path d="M1810.47052,1106.33104 L1910.9895,1048.21724 L1810.46782,990.103437 L1810.46782,1106.33104 L1810.47052,1106.33104" id="Fill-1816" fill="#B7B5B1"></path>
                    <path d="M1810.46782,1106.33104 L1810.47052,1106.33104 L1810.46782,1106.33104" id="Fill-1817" fill="#B7B5B1"></path>
                    <path d="M1810.47052,1106.33104 L1910.9895,1164.44485 L1910.9895,1048.21724 L1810.47052,1106.33104" id="Fill-1818" fill="#B7B5B1"></path>
                    <path d="M1810.47052,1222.55594 L1910.9895,1164.44485 L1810.46782,1106.33104 L1810.46782,1222.55594 L1810.47052,1222.55594" id="Fill-1819" fill="#B7B5B1"></path>
                    <path d="M1810.46782,1222.55594 L1810.47052,1222.55594 L1810.46782,1222.55594" id="Fill-1820" fill="#828483"></path>
                    <path d="M1810.47052,1338.77814 L1910.9895,1280.66704 L1810.46782,1222.55594 L1810.46782,1338.77814 L1810.47052,1338.77814" id="Fill-1821" fill="#D8D6CE"></path>
                    <path d="M1810.46782,1338.77814 L1810.47052,1338.77814 L1810.46782,1338.77814" id="Fill-1822" fill="#828483"></path>
                    <path d="M1810.47052,1338.77814 L1910.9895,1396.89465 L1910.9895,1280.66704 L1810.47052,1338.77814" id="Fill-1823" fill="#D8D6CE"></path>
                    <path d="M1810.47052,1455.00575 L1910.9895,1396.89465 L1810.46782,1338.77814 L1810.46782,1455.00575 L1810.47052,1455.00575" id="Fill-1824" fill="#D8D6CE"></path>
                    <path d="M1810.46782,1455.00575 L1810.47052,1455.00575 L1810.46782,1455.00575" id="Fill-1825" fill="#828483"></path>
                    <path d="M1709.94614,931.992338 L1609.42446,873.881239 L1609.42446,990.106141 L1709.94614,931.992338" id="Fill-1826" fill="#B7B5B1"></path>
                    <path d="M1709.94614,815.770141 L1709.94614,815.770141 L1609.42446,873.881239 L1709.94614,931.992338 L1709.94614,815.770141" id="Fill-1827" fill="#B7B5B1"></path>
                    <path d="M1709.94614,931.992338 L1810.46782,873.881239 L1709.94614,815.770141 L1709.94614,931.992338" id="Fill-1828" fill="#B7B5B1"></path>
                    <path id="Fill-1829" fill="#828483"></path>
                    <path d="M1709.94614,931.992338 L1810.46782,990.106141 L1810.46782,873.881239 L1709.94614,931.992338" id="Fill-1830" fill="#B7B5B1"></path>
                    <path d="M1709.94614,931.992338 L1709.94614,931.992338 L1609.42446,990.106141 L1709.94614,1048.21724 L1709.94614,931.992338" id="Fill-1831" fill="#B7B5B1"></path>
                    <path d="M1709.94614,1048.21724 L1810.46782,990.106141 L1709.94614,931.992338 L1709.94614,1048.21724" id="Fill-1832" fill="#B7B5B1"></path>
                    <path id="Fill-1833" fill="#828483"></path>
                    <path d="M1709.94614,1048.21724 L1810.46782,1106.33104 L1810.46782,990.106141 L1709.94614,1048.21724" id="Fill-1834" fill="#828483"></path>
                    <path d="M1709.94614,1164.44485 L1810.46782,1106.33375 L1709.94614,1048.21994 L1709.94614,1164.44485" id="Fill-1835" fill="#828483"></path>
                    <path id="Fill-1836" fill="#828483"></path>
                    <path d="M1709.94614,1164.44485 L1810.46782,1222.55594 L1810.46782,1106.33375 L1709.94614,1164.44485" id="Fill-1837" fill="#B7B5B1"></path>
                    <path d="M1709.94614,1280.66704 L1609.42446,1222.55594 L1609.42446,1338.78085 L1709.94614,1280.66704" id="Fill-1838" fill="#B7B5B1"></path>
                    <path d="M1709.94614,1164.44485 L1709.94614,1164.44485 L1609.42446,1222.55594 L1709.94614,1280.66704 L1709.94614,1164.44485" id="Fill-1839" fill="#B7B5B1"></path>
                    <path d="M1709.94614,1280.66704 L1810.46782,1222.55594 L1709.94614,1164.44485 L1709.94614,1280.66704" id="Fill-1840" fill="#B7B5B1"></path>
                    <path id="Fill-1841" fill="#828483"></path>
                    <path d="M1709.94614,1280.66704 L1810.46782,1338.78085 L1810.46782,1222.55594 L1709.94614,1280.66704" id="Fill-1842" fill="#828483"></path>
                    <path d="M1709.94614,1280.66704 L1709.94614,1280.66704 L1609.42446,1338.78085 L1709.94614,1396.89465 L1709.94614,1280.66704" id="Fill-1843" fill="#B7B5B1"></path>
                    <path d="M1709.94614,1396.89465 L1810.46782,1338.78085 L1709.94614,1280.66704 L1709.94614,1396.89465" id="Fill-1844" fill="#828483"></path>
                    <path id="Fill-1845" fill="#828483"></path>
                    <path d="M1709.94614,1396.89465 L1810.46782,1455.00575 L1810.46782,1338.78085 L1709.94614,1396.89465" id="Fill-1846" fill="#B7B5B1"></path>
                    <path d="M1709.94614,1513.11955 L1810.46782,1455.00575 L1709.94614,1396.89465 L1709.94614,1513.11955" id="Fill-1847" fill="#D8D6CE"></path>
                    <path id="Fill-1848" fill="#828483"></path>
                    <path d="M1609.42446,1106.33375 L1709.94614,1048.21994 L1609.42446,990.106141 L1609.42446,1106.33375" id="Fill-1849" fill="#D8D6CE"></path>
                    <path d="M1609.42446,1106.33375 L1609.42446,1106.33104 L1609.42446,1106.33375" id="Fill-1850" fill="#828483"></path>
                    <path d="M1609.42446,1106.33375 L1709.94614,1164.44485 L1709.94614,1048.21994 L1609.42446,1106.33375" id="Fill-1851" fill="#D8D6CE"></path>
                    <path d="M1609.42446,1106.33375 L1609.42446,1222.55594 L1709.94614,1164.44485 L1609.42446,1106.33375" id="Fill-1852" fill="#B7B5B1"></path>
                    <path d="M1609.42446,1455.00575 L1709.94614,1396.89465 L1609.42446,1338.78085 L1609.42446,1455.00575" id="Fill-1853" fill="#92928F"></path>
                    <path id="Fill-1854" fill="#828483"></path>
                    <path d="M1609.42446,1455.00575 L1709.94614,1513.11955 L1709.94614,1396.89465 L1609.42446,1455.00575" id="Fill-1855" fill="#92928F"></path>
                    <path d="M1609.42446,1571.23065 L1709.94614,1513.11955 L1609.42446,1455.00575 L1609.42446,1571.23065" id="Fill-1856" fill="#828483"></path>
                    <path id="Fill-1857" fill="#828483"></path>
                    <path d="M1.08026846,641.428732 L1.08296913,641.426028 L1.08026846,641.428732" id="Fill-1858" fill="#828483"></path>
                    <path d="M1.08026846,757.653634 L1.08296913,757.653634 L1.08026846,757.653634" id="Fill-1859" fill="#CECECA"></path>
                    <path id="Fill-1860" fill="#828483"></path>
                    <path id="Fill-1861" fill="#828483"></path>
                    <path id="Fill-1862" fill="#828483"></path>
                    <path id="Fill-1863" fill="#828483"></path>
                    <path id="Fill-1864" fill="#828483"></path>
                    <path id="Fill-1865" fill="#828483"></path>
                    <path d="M302.64531,234.640225 L302.648011,234.640225 L302.64531,234.640225" id="Fill-1866" fill="#828483"></path>
                    <path d="M302.648011,234.640225 L403.166991,292.754028 L403.166991,176.529127 L302.648011,234.640225" id="Fill-1867" fill="#B7B5B1"></path>
                    <path d="M302.64531,118.415324 L302.648011,118.415324 L302.64531,118.415324" id="Fill-1868" fill="#828483"></path>
                    <path d="M302.648011,118.415324 L403.166991,176.529127 L403.166991,60.3015211 L302.648011,118.415324" id="Fill-1869" fill="#92928F"></path>
                    <path d="M302.64531,118.415324 L302.64531,234.640225 L403.166991,176.529127 L302.648011,118.415324 L302.64531,118.415324" id="Fill-1870" fill="#92928F"></path>
                    <path d="M302.648011,350.867831 L403.166991,292.754028 L302.64531,234.640225 L302.64531,350.867831 L302.648011,350.867831" id="Fill-1871" fill="#B7B5B1"></path>
                    <path d="M302.64531,350.867831 L302.648011,350.867831 L302.64531,350.867831" id="Fill-1872" fill="#828483"></path>
                    <path d="M302.648011,350.867831 L403.166991,408.97893 L403.166991,292.754028 L302.648011,350.867831" id="Fill-1873" fill="#828483"></path>
                    <path d="M302.648011,467.090028 L403.166991,408.97893 L302.64531,350.867831 L302.64531,467.090028 L302.648011,467.090028" id="Fill-1874" fill="#92928F"></path>
                    <path d="M302.64531,467.090028 L302.648011,467.090028 L302.64531,467.090028" id="Fill-1875" fill="#828483"></path>
                    <path d="M302.648011,467.090028 L403.166991,525.203831 L403.166991,408.97893 L302.648011,467.090028" id="Fill-1876" fill="#CECECA"></path>
                    <path d="M302.648011,583.31493 L403.166991,525.203831 L302.64531,467.090028 L302.64531,583.31493 L302.648011,583.31493" id="Fill-1877" fill="#B7B5B1"></path>
                    <path d="M302.64531,583.31493 L302.648011,583.31493 L302.64531,583.31493" id="Fill-1878" fill="#828483"></path>
                    <path d="M302.648011,583.31493 L403.166991,641.426028 L403.166991,525.203831 L302.648011,583.31493" id="Fill-1879" fill="#B7B5B1"></path>
                    <path d="M302.648011,699.542535 L403.166991,641.426028 L302.64531,583.31493 L302.64531,699.539831 L302.648011,699.542535" id="Fill-1880" fill="#B7B5B1"></path>
                    <path d="M302.64531,699.542535 L302.648011,699.542535 L302.64531,699.542535" id="Fill-1881" fill="#828483"></path>
                    <path d="M302.648011,699.542535 L403.166991,757.653634 L403.166991,641.426028 L302.648011,699.542535" id="Fill-1882" fill="#B7B5B1"></path>
                    <path d="M302.648011,815.764732 L403.166991,757.653634 L302.64531,699.542535 L302.64531,815.764732 L302.648011,815.764732" id="Fill-1883" fill="#B7B5B1"></path>
                    <path d="M302.64531,815.764732 L302.648011,815.764732 L302.64531,815.764732" id="Fill-1884" fill="#828483"></path>
                    <path d="M302.648011,815.764732 L403.166991,873.875831 L403.166991,757.653634 L302.648011,815.764732" id="Fill-1885" fill="#B7B5B1"></path>
                    <path d="M202.12633,176.523718 L302.64531,118.41262 L202.12633,60.2988169 L202.12633,176.523718" id="Fill-1886" fill="#828483"></path>
                    <path d="M202.12633,176.526423 L202.12633,176.523718 L202.12633,176.526423" id="Fill-1887" fill="#828483"></path>
                    <path d="M202.12633,176.523718 L302.64531,234.637521 L302.64531,118.41262 L202.12633,176.523718" id="Fill-1888" fill="#828483"></path>
                    <path d="M302.64531,2.19583099 L302.64531,118.420732 L403.166991,60.3096338 L302.648011,2.19583099 L302.64531,2.19583099" id="Fill-1889" fill="#92928F"></path>
                    <path d="M202.12633,60.3042254 L302.64531,118.418028 L302.64531,2.19312676 L202.12633,60.3042254" id="Fill-1890" fill="#92928F"></path>
                    <path d="M202.12633,292.751324 L302.64531,234.637521 L202.12633,176.523718 L202.12633,292.751324" id="Fill-1891" fill="#B7B5B1"></path>
                    <path d="M202.12633,292.751324 L202.12633,292.74862 L202.12633,292.751324" id="Fill-1892" fill="#828483"></path>
                    <path d="M202.12633,292.751324 L302.64531,350.862423 L302.64531,234.637521 L202.12633,292.751324" id="Fill-1893" fill="#828483"></path>
                    <path d="M202.12633,408.973521 L302.64531,350.862423 L202.12633,292.751324 L202.12633,408.973521" id="Fill-1894" fill="#828483"></path>
                    <path id="Fill-1895" fill="#828483"></path>
                    <path d="M202.12633,408.973521 L302.64531,467.087324 L302.64531,350.862423 L202.12633,408.973521" id="Fill-1896" fill="#828483"></path>
                    <path d="M202.12633,525.198423 L302.64531,467.087324 L202.12633,408.973521 L202.12633,525.198423" id="Fill-1897" fill="#B7B5B1"></path>
                    <path id="Fill-1898" fill="#828483"></path>
                    <path d="M202.12633,525.198423 L302.64531,583.309521 L302.64531,467.087324 L202.12633,525.198423" id="Fill-1899" fill="#B7B5B1"></path>
                    <path d="M202.12633,641.423324 L302.64531,583.309521 L202.12633,525.198423 L202.12633,641.423324" id="Fill-1900" fill="#B7B5B1"></path>
                    <path id="Fill-1901" fill="#828483"></path>
                    <path d="M202.12633,641.423324 L302.64531,699.534423 L302.64531,583.309521 L202.12633,641.423324" id="Fill-1902" fill="#B7B5B1"></path>
                    <path d="M202.12633,757.648225 L302.64531,699.539831 L202.12633,641.423324 L202.12633,757.648225" id="Fill-1903" fill="#D8D6CE"></path>
                    <path id="Fill-1904" fill="#828483"></path>
                    <path d="M202.12633,757.648225 L302.64531,815.762028 L302.64531,699.539831 L202.12633,757.648225" id="Fill-1905" fill="#D8D6CE"></path>
                    <path id="Fill-1906" fill="#828483"></path>
                    <path d="M101.601949,234.640225 L202.12633,292.754028 L202.12633,176.531831 L101.601949,234.640225" id="Fill-1907" fill="#B7B5B1"></path>
                    <path id="Fill-1908" fill="#828483"></path>
                    <path d="M101.601949,118.420732 L202.12633,176.531831 L202.12633,60.3042254 L101.601949,118.420732" id="Fill-1909" fill="#B7B5B1"></path>
                    <path d="M101.601949,118.420732 L101.601949,234.64293 L202.12633,176.531831 L101.601949,118.420732" id="Fill-1910" fill="#B7B5B1"></path>
                    <path id="Fill-1911" fill="#828483"></path>
                    <path d="M101.601949,350.870535 L202.12633,408.981634 L202.12633,292.754028 L101.601949,350.870535" id="Fill-1912" fill="#828483"></path>
                    <path d="M101.601949,467.092732 L202.12633,408.981634 L101.601949,350.870535 L101.601949,467.092732" id="Fill-1913" fill="#828483"></path>
                    <path id="Fill-1914" fill="#828483"></path>
                    <path d="M101.601949,467.092732 L202.12633,525.206535 L202.12633,408.981634 L101.601949,467.092732" id="Fill-1915" fill="#B7B5B1"></path>
                    <path d="M101.601949,583.317634 L202.12633,525.206535 L101.601949,467.092732 L101.601949,583.317634" id="Fill-1916" fill="#D8D6CE"></path>
                    <path id="Fill-1917" fill="#828483"></path>
                    <path d="M101.601949,583.317634 L202.12633,641.428732 L202.12633,525.206535 L101.601949,583.317634" id="Fill-1918" fill="#D8D6CE"></path>
                    <path d="M101.601949,699.542535 L202.12633,641.428732 L101.601949,583.317634 L101.601949,699.542535" id="Fill-1919" fill="#92928F"></path>
                    <path id="Fill-1920" fill="#828483"></path>
                    <path d="M101.601949,699.542535 L202.12633,757.656338 L202.12633,641.428732 L101.601949,699.542535" id="Fill-1921" fill="#CECECA"></path>
                    <path d="M101.601949,815.767437 L202.12633,757.656338 L101.601949,699.542535 L101.601949,815.767437" id="Fill-1922" fill="#CECECA"></path>
                    <path id="Fill-1923" fill="#828483"></path>
                    <path d="M1.08026846,525.206535 L101.601949,583.317634 L101.601949,467.095437 L1.08026846,525.206535" id="Fill-1924" fill="#D8D6CE"></path>
                    <path d="M1.08026846,641.428732 L101.601949,583.317634 L1.08026846,525.206535 L1.08026846,641.428732" id="Fill-1925" fill="#D8D6CE"></path>
                    <path id="Fill-1926" fill="#828483"></path>
                    <path d="M1.08026846,641.428732 L101.601949,699.542535 L101.601949,583.317634 L1.08026846,641.428732" id="Fill-1927" fill="#92928F"></path>
                    <path d="M1.08026846,757.656338 L101.601949,699.542535 L1.08026846,641.428732 L1.08026846,757.656338" id="Fill-1928" fill="#CECECA"></path>
                    <path d="M1.08026846,757.659042 L1.08026846,757.656338 L1.08026846,757.659042" id="Fill-1929" fill="#CECECA"></path>
                    <path d="M1.08026846,757.656338 L101.601949,815.770141 L101.601949,699.542535 L1.08026846,757.656338" id="Fill-1930" fill="#CECECA"></path>
                    <path d="M805.251012,292.754028 L805.253713,292.754028 L805.251012,292.754028" id="Fill-1931" fill="#828483"></path>
                    <path d="M805.251012,176.529127 L805.253713,176.529127 L805.251012,176.529127" id="Fill-1932" fill="#828483"></path>
                    <path d="M805.251012,525.206535 L805.253713,525.203831 L805.251012,525.206535" id="Fill-1933" fill="#828483"></path>
                    <path d="M805.251012,408.97893 L805.253713,408.97893 L805.251012,408.97893" id="Fill-1934" fill="#828483"></path>
                    <path d="M805.251012,641.428732 L805.253713,641.426028 L805.251012,641.428732" id="Fill-1935" fill="#828483"></path>
                    <path d="M805.251012,757.653634 L805.253713,757.653634 L805.251012,757.653634" id="Fill-1936" fill="#828483"></path>
                    <path id="Fill-1937" fill="#828483"></path>
                    <path d="M704.732032,234.640225 L805.253713,292.754028 L805.253713,176.529127 L704.732032,234.640225" id="Fill-1938" fill="#CECECA"></path>
                    <path id="Fill-1939" fill="#828483"></path>
                    <path d="M704.732032,118.415324 L805.253713,176.529127 L805.253713,60.3015211 L704.732032,118.415324" id="Fill-1940" fill="#CECECA"></path>
                    <path d="M704.732032,118.415324 L704.732032,234.640225 L805.253713,176.529127 L704.732032,118.415324" id="Fill-1941" fill="#CECECA"></path>
                    <path d="M704.732032,350.867831 L805.253713,292.754028 L704.732032,234.640225 L704.732032,350.867831" id="Fill-1942" fill="#CECECA"></path>
                    <path id="Fill-1943" fill="#828483"></path>
                    <path d="M704.732032,350.867831 L805.253713,408.97893 L805.253713,292.754028 L704.732032,350.867831" id="Fill-1944" fill="#CECECA"></path>
                    <path d="M704.732032,467.090028 L805.253713,408.97893 L704.732032,350.867831 L704.732032,467.090028" id="Fill-1945" fill="#92928F"></path>
                    <path id="Fill-1946" fill="#828483"></path>
                    <path d="M704.732032,467.090028 L805.253713,525.203831 L805.253713,408.97893 L704.732032,467.090028" id="Fill-1947" fill="#92928F"></path>
                    <path d="M704.732032,583.31493 L805.253713,525.203831 L704.732032,467.090028 L704.732032,583.31493" id="Fill-1948" fill="#CECECA"></path>
                    <path id="Fill-1949" fill="#828483"></path>
                    <path d="M704.732032,583.31493 L805.253713,641.426028 L805.253713,525.203831 L704.732032,583.31493" id="Fill-1950" fill="#D8D6CE"></path>
                    <path d="M704.732032,699.542535 L805.253713,641.426028 L704.732032,583.31493 L704.732032,699.542535" id="Fill-1951" fill="#D8D6CE"></path>
                    <path id="Fill-1952" fill="#828483"></path>
                    <path d="M704.732032,699.542535 L805.253713,757.653634 L805.253713,641.426028 L704.732032,699.542535" id="Fill-1953" fill="#B7B5B1"></path>
                    <path d="M704.732032,815.764732 L805.253713,757.653634 L704.732032,699.542535 L704.732032,815.764732" id="Fill-1954" fill="#828483"></path>
                    <path id="Fill-1955" fill="#828483"></path>
                    <path d="M704.732032,815.764732 L805.253713,873.875831 L805.253713,757.653634 L704.732032,815.764732" id="Fill-1956" fill="#828483"></path>
                    <path d="M604.210352,176.523718 L704.729332,118.41262 L604.210352,60.2988169 L604.210352,176.523718" id="Fill-1957" fill="#92928F"></path>
                    <path d="M604.210352,176.526423 L604.210352,176.523718 L604.210352,176.526423" id="Fill-1958" fill="#828483"></path>
                    <path d="M604.210352,176.523718 L704.729332,234.637521 L704.729332,118.41262 L604.210352,176.523718" id="Fill-1959" fill="#92928F"></path>
                    <path d="M604.210352,292.751324 L704.729332,234.637521 L604.210352,176.523718 L604.210352,292.751324" id="Fill-1960" fill="#92928F"></path>
                    <path d="M604.210352,292.751324 L604.210352,292.74862 L604.210352,292.751324" id="Fill-1961" fill="#828483"></path>
                    <path d="M604.210352,292.751324 L704.729332,350.862423 L704.729332,234.637521 L604.210352,292.751324" id="Fill-1962" fill="#CECECA"></path>
                    <path d="M604.210352,408.973521 L704.729332,350.862423 L604.210352,292.751324 L604.210352,408.973521" id="Fill-1963" fill="#B7B5B1"></path>
                    <path id="Fill-1964" fill="#828483"></path>
                    <path d="M604.210352,408.973521 L704.729332,467.087324 L704.729332,350.862423 L604.210352,408.973521" id="Fill-1965" fill="#B7B5B1"></path>
                    <path d="M604.210352,525.198423 L704.729332,467.087324 L604.210352,408.973521 L604.210352,525.198423" id="Fill-1966" fill="#B7B5B1"></path>
                    <path id="Fill-1967" fill="#828483"></path>
                    <path d="M604.210352,525.198423 L704.729332,583.309521 L704.729332,467.087324 L604.210352,525.198423" id="Fill-1968" fill="#B7B5B1"></path>
                    <path d="M604.210352,641.423324 L704.729332,583.309521 L604.210352,525.198423 L604.210352,641.423324" id="Fill-1969" fill="#B7B5B1"></path>
                    <path id="Fill-1970" fill="#828483"></path>
                    <path d="M604.210352,641.423324 L704.729332,699.534423 L704.729332,583.309521 L604.210352,641.423324" id="Fill-1971" fill="#92928F"></path>
                    <path d="M604.210352,757.648225 L704.729332,699.539831 L604.210352,641.423324 L604.210352,757.648225" id="Fill-1972" fill="#92928F"></path>
                    <path id="Fill-1973" fill="#828483"></path>
                    <path d="M604.210352,757.648225 L704.729332,815.762028 L704.729332,699.539831 L604.210352,757.648225" id="Fill-1974" fill="#B7B5B1"></path>
                    <path id="Fill-1975" fill="#828483"></path>
                    <path d="M503.691372,234.640225 L604.210352,292.754028 L604.210352,176.531831 L503.691372,234.640225" id="Fill-1976" fill="#B7B5B1"></path>
                    <path id="Fill-1977" fill="#828483"></path>
                    <path d="M503.691372,118.420732 L604.210352,176.531831 L604.210352,60.3042254 L503.691372,118.420732" id="Fill-1978" fill="#92928F"></path>
                    <path d="M503.691372,118.420732 L503.691372,234.64293 L604.210352,176.531831 L503.691372,118.420732" id="Fill-1979" fill="#B7B5B1"></path>
                    <path d="M503.691372,350.870535 L604.210352,292.754028 L503.691372,234.640225 L503.691372,350.870535" id="Fill-1980" fill="#828483"></path>
                    <path id="Fill-1981" fill="#828483"></path>
                    <path d="M503.691372,350.870535 L604.210352,408.981634 L604.210352,292.754028 L503.691372,350.870535" id="Fill-1982" fill="#B7B5B1"></path>
                    <path d="M503.691372,467.092732 L604.210352,408.981634 L503.691372,350.870535 L503.691372,467.092732" id="Fill-1983" fill="#B7B5B1"></path>
                    <path id="Fill-1984" fill="#828483"></path>
                    <path d="M503.691372,467.092732 L604.210352,525.206535 L604.210352,408.981634 L503.691372,467.092732" id="Fill-1985" fill="#B7B5B1"></path>
                    <path d="M503.691372,583.317634 L604.210352,525.206535 L503.691372,467.092732 L503.691372,583.317634" id="Fill-1986" fill="#92928F"></path>
                    <path id="Fill-1987" fill="#828483"></path>
                    <path d="M503.691372,583.317634 L604.210352,641.428732 L604.210352,525.206535 L503.691372,583.317634" id="Fill-1988" fill="#92928F"></path>
                    <path d="M503.691372,699.542535 L604.210352,641.428732 L503.691372,583.317634 L503.691372,699.542535" id="Fill-1989" fill="#B7B5B1"></path>
                    <path id="Fill-1990" fill="#828483"></path>
                    <path d="M503.691372,699.542535 L604.210352,757.656338 L604.210352,641.428732 L503.691372,699.542535" id="Fill-1991" fill="#92928F"></path>
                    <path d="M503.691372,815.767437 L604.210352,757.656338 L503.691372,699.542535 L503.691372,815.767437" id="Fill-1992" fill="#B7B5B1"></path>
                    <path id="Fill-1993" fill="#828483"></path>
                    <path id="Fill-1994" fill="#828483"></path>
                    <path d="M403.166991,176.531831 L503.691372,234.64293 L503.691372,118.420732 L403.166991,176.531831" id="Fill-1995" fill="#828483"></path>
                    <path d="M403.166991,292.754028 L503.691372,234.64293 L403.166991,176.531831 L403.166991,292.754028" id="Fill-1996" fill="#CECECA"></path>
                    <path id="Fill-1997" fill="#828483"></path>
                    <path d="M403.166991,292.754028 L503.691372,350.870535 L503.691372,234.64293 L403.166991,292.754028" id="Fill-1998" fill="#CECECA"></path>
                    <path d="M403.166991,408.981634 L503.691372,350.870535 L403.166991,292.754028 L403.166991,408.981634" id="Fill-1999" fill="#B7B5B1"></path>
                    <path id="Fill-2000" fill="#828483"></path>
                    <path d="M403.166991,408.981634 L503.691372,467.092732 L503.691372,350.870535 L403.166991,408.981634" id="Fill-2001" fill="#92928F"></path>
                    <path d="M403.166991,525.206535 L503.691372,467.095437 L403.166991,408.981634 L403.166991,525.206535" id="Fill-2002" fill="#CECECA"></path>
                    <path id="Fill-2003" fill="#828483"></path>
                    <path d="M403.166991,525.206535 L503.691372,583.317634 L503.691372,467.095437 L403.166991,525.206535" id="Fill-2004" fill="#D8D6CE"></path>
                    <path d="M403.166991,641.428732 L503.691372,583.317634 L403.166991,525.206535 L403.166991,641.428732" id="Fill-2005" fill="#D8D6CE"></path>
                    <path id="Fill-2006" fill="#828483"></path>
                    <path d="M403.166991,757.656338 L503.691372,699.542535 L403.166991,641.428732 L403.166991,757.656338" id="Fill-2007" fill="#B7B5B1"></path>
                    <path d="M403.166991,757.659042 L403.166991,757.656338 L403.166991,757.659042" id="Fill-2008" fill="#828483"></path>
                    <path d="M403.166991,757.656338 L503.691372,815.770141 L503.691372,699.542535 L403.166991,757.656338" id="Fill-2009" fill="#828483"></path>
                    <path d="M403.166991,757.659042 L403.166991,873.881239 L503.691372,815.770141 L403.166991,757.656338 L403.166991,757.659042" id="Fill-2010" fill="#828483"></path>
                    <path id="Fill-2011" fill="#828483"></path>
                    <path d="M1207.34043,525.206535 L1207.34043,525.203831 L1207.34043,525.206535" id="Fill-2012" fill="#828483"></path>
                    <path id="Fill-2013" fill="#828483"></path>
                    <path d="M1207.34043,641.428732 L1207.34043,641.426028 L1207.34043,641.428732" id="Fill-2014" fill="#828483"></path>
                    <path id="Fill-2015" fill="#828483"></path>
                    <path id="Fill-2016" fill="#828483"></path>
                    <path d="M1106.81875,350.867831 L1207.34043,292.754028 L1106.81875,234.640225 L1106.81875,350.867831" id="Fill-2017" fill="#B7B5B1"></path>
                    <path id="Fill-2018" fill="#828483"></path>
                    <path d="M1106.81875,350.867831 L1207.34043,408.97893 L1207.34043,292.754028 L1106.81875,350.867831" id="Fill-2019" fill="#828483"></path>
                    <path d="M1106.81875,234.64293 L1207.34043,292.754028 L1207.34043,176.529127 L1106.81875,234.64293" id="Fill-2020" fill="#B7B5B1"></path>
                    <path d="M1106.81875,467.090028 L1207.34043,408.97893 L1106.81875,350.867831 L1106.81875,467.090028" id="Fill-2021" fill="#B7B5B1"></path>
                    <path id="Fill-2022" fill="#828483"></path>
                    <path d="M1106.81875,467.090028 L1207.34043,525.203831 L1207.34043,408.97893 L1106.81875,467.090028" id="Fill-2023" fill="#B7B5B1"></path>
                    <path d="M1106.81875,583.31493 L1207.34043,525.203831 L1106.81875,467.090028 L1106.81875,583.31493" id="Fill-2024" fill="#D8D6CE"></path>
                    <path id="Fill-2025" fill="#828483"></path>
                    <path d="M1106.81875,583.31493 L1207.34043,641.426028 L1207.34043,525.203831 L1106.81875,583.31493" id="Fill-2026" fill="#CECECA"></path>
                    <path d="M1106.81875,699.542535 L1207.34043,641.426028 L1106.81875,583.31493 L1106.81875,699.542535" id="Fill-2027" fill="#CECECA"></path>
                    <path id="Fill-2028" fill="#828483"></path>
                    <path d="M1106.81875,699.542535 L1207.34043,757.653634 L1207.34043,641.426028 L1106.81875,699.542535" id="Fill-2029" fill="#B7B5B1"></path>
                    <path d="M1106.81875,815.764732 L1207.34043,757.653634 L1106.81875,699.542535 L1106.81875,815.764732" id="Fill-2030" fill="#B7B5B1"></path>
                    <path id="Fill-2031" fill="#828483"></path>
                    <path d="M1106.81875,815.764732 L1207.34043,873.875831 L1207.34043,757.653634 L1106.81875,815.764732" id="Fill-2032" fill="#B7B5B1"></path>
                    <path d="M1006.29707,176.526423 L1006.29707,176.523718 L1006.29707,176.526423" id="Fill-2033" fill="#828483"></path>
                    <path d="M1006.29707,292.751324 L1106.81875,234.637521 L1006.29707,176.523718 L1006.29707,292.751324" id="Fill-2034" fill="#B7B5B1"></path>
                    <path d="M1207.34043,292.751324 L1307.85941,234.637521 L1207.34043,176.523718 L1207.34043,292.751324" id="Fill-2035" fill="#B7B5B1"></path>
                    <path d="M1006.29707,292.751324 L1006.29707,292.74862 L1006.29707,292.751324" id="Fill-2036" fill="#828483"></path>
                    <path d="M1006.29707,292.751324 L1106.81875,350.862423 L1106.81875,234.637521 L1006.29707,292.751324" id="Fill-2037" fill="#B7B5B1"></path>
                    <path d="M1006.29707,408.973521 L1106.81875,350.862423 L1006.29707,292.751324 L1006.29707,408.973521" id="Fill-2038" fill="#B7B5B1"></path>
                    <path id="Fill-2039" fill="#828483"></path>
                    <path d="M1006.29707,408.973521 L1106.81875,467.087324 L1106.81875,350.862423 L1006.29707,408.973521" id="Fill-2040" fill="#D8D6CE"></path>
                    <path d="M1006.29707,525.198423 L1106.81875,467.087324 L1006.29707,408.973521 L1006.29707,525.198423" id="Fill-2041" fill="#D8D6CE"></path>
                    <path id="Fill-2042" fill="#828483"></path>
                    <path d="M1006.29707,525.198423 L1106.81875,583.309521 L1106.81875,467.087324 L1006.29707,525.198423" id="Fill-2043" fill="#D8D6CE"></path>
                    <path d="M1006.29707,641.423324 L1106.81875,583.309521 L1006.29707,525.198423 L1006.29707,641.423324" id="Fill-2044" fill="#D8D6CE"></path>
                    <path id="Fill-2045" fill="#828483"></path>
                    <path d="M1006.29707,641.423324 L1106.81875,699.534423 L1106.81875,583.309521 L1006.29707,641.423324" id="Fill-2046" fill="#D8D6CE"></path>
                    <path d="M1006.29707,757.648225 L1106.81875,699.539831 L1006.29707,641.423324 L1006.29707,757.648225" id="Fill-2047" fill="#92928F"></path>
                    <path id="Fill-2048" fill="#828483"></path>
                    <path d="M1006.29707,757.648225 L1106.81875,815.762028 L1106.81875,699.539831 L1006.29707,757.648225" id="Fill-2049" fill="#92928F"></path>
                    <path id="Fill-2050" fill="#828483"></path>
                    <path d="M905.775393,234.640225 L1006.29437,292.754028 L1006.29437,176.531831 L905.775393,234.640225" id="Fill-2051" fill="#92928F"></path>
                    <path id="Fill-2052" fill="#828483"></path>
                    <path d="M905.775393,118.420732 L905.775393,234.64293 L1006.29437,176.531831 L905.775393,118.420732" id="Fill-2053" fill="#B7B5B1"></path>
                    <path d="M905.775393,350.870535 L1006.29437,292.754028 L905.775393,234.640225 L905.775393,350.870535" id="Fill-2054" fill="#92928F"></path>
                    <path id="Fill-2055" fill="#828483"></path>
                    <path d="M905.775393,350.870535 L1006.29437,408.981634 L1006.29437,292.754028 L905.775393,350.870535" id="Fill-2056" fill="#B7B5B1"></path>
                    <path d="M905.775393,467.092732 L1006.29437,408.981634 L905.775393,350.870535 L905.775393,467.092732" id="Fill-2057" fill="#B7B5B1"></path>
                    <path id="Fill-2058" fill="#828483"></path>
                    <path d="M905.775393,467.092732 L1006.29437,525.206535 L1006.29437,408.981634 L905.775393,467.092732" id="Fill-2059" fill="#B7B5B1"></path>
                    <path d="M905.775393,583.317634 L1006.29437,525.206535 L905.775393,467.092732 L905.775393,583.317634" id="Fill-2060" fill="#828483"></path>
                    <path id="Fill-2061" fill="#828483"></path>
                    <path d="M905.775393,583.317634 L1006.29437,641.428732 L1006.29437,525.206535 L905.775393,583.317634" id="Fill-2062" fill="#B7B5B1"></path>
                    <path d="M905.775393,699.542535 L1006.29437,641.428732 L905.775393,583.317634 L905.775393,699.542535" id="Fill-2063" fill="#B7B5B1"></path>
                    <path id="Fill-2064" fill="#828483"></path>
                    <path id="Fill-2065" fill="#828483"></path>
                    <path d="M805.251012,176.531831 L905.775393,118.420732 L805.251012,60.3042254 L805.251012,176.531831" id="Fill-2066" fill="#CECECA"></path>
                    <path id="Fill-2067" fill="#828483"></path>
                    <path d="M805.251012,176.531831 L905.775393,234.64293 L905.775393,118.420732 L805.251012,176.531831" id="Fill-2068" fill="#92928F"></path>
                    <path d="M805.251012,292.754028 L905.775393,234.64293 L805.251012,176.531831 L805.251012,292.754028" id="Fill-2069" fill="#92928F"></path>
                    <path id="Fill-2070" fill="#828483"></path>
                    <path d="M805.251012,292.754028 L905.775393,350.870535 L905.775393,234.64293 L805.251012,292.754028" id="Fill-2071" fill="#B7B5B1"></path>
                    <path d="M805.251012,408.981634 L905.775393,350.870535 L805.251012,292.754028 L805.251012,408.981634" id="Fill-2072" fill="#CECECA"></path>
                    <path id="Fill-2073" fill="#828483"></path>
                    <path d="M805.251012,408.981634 L905.775393,467.092732 L905.775393,350.870535 L805.251012,408.981634" id="Fill-2074" fill="#B7B5B1"></path>
                    <path d="M805.251012,525.206535 L905.775393,467.095437 L805.251012,408.981634 L805.251012,525.206535" id="Fill-2075" fill="#B7B5B1"></path>
                    <path id="Fill-2076" fill="#828483"></path>
                    <path d="M805.251012,525.206535 L905.775393,583.317634 L905.775393,467.095437 L805.251012,525.206535" id="Fill-2077" fill="#828483"></path>
                    <path d="M805.251012,641.428732 L905.775393,583.317634 L805.251012,525.206535 L805.251012,641.428732" id="Fill-2078" fill="#B7B5B1"></path>
                    <path id="Fill-2079" fill="#828483"></path>
                    <path d="M805.251012,641.428732 L905.775393,699.542535 L905.775393,583.317634 L805.251012,641.428732" id="Fill-2080" fill="#B7B5B1"></path>
                    <path d="M805.251012,757.656338 L905.775393,699.542535 L805.251012,641.428732 L805.251012,757.656338" id="Fill-2081" fill="#B7B5B1"></path>
                    <path d="M805.251012,757.659042 L805.251012,757.656338 L805.251012,757.659042" id="Fill-2082" fill="#828483"></path>
                    <path d="M805.251012,757.656338 L905.775393,815.770141 L905.775393,699.542535 L805.251012,757.656338" id="Fill-2083" fill="#B7B5B1"></path>
                    <path d="M805.251012,757.659042 L805.251012,873.881239 L905.775393,815.770141 L805.251012,757.656338 L805.251012,757.659042" id="Fill-2084" fill="#B7B5B1"></path>
                    <path d="M1609.42446,292.754028 L1609.42716,292.754028 L1609.42446,292.754028" id="Fill-2085" fill="#828483"></path>
                    <path d="M1609.42446,525.206535 L1609.42716,525.203831 L1609.42446,525.206535" id="Fill-2086" fill="#828483"></path>
                    <path d="M1609.42446,408.97893 L1609.42716,408.97893 L1609.42446,408.97893" id="Fill-2087" fill="#FFFFFF"></path>
                    <path d="M1609.42446,641.428732 L1609.42716,641.426028 L1609.42446,641.428732" id="Fill-2088" fill="#828483"></path>
                    <path d="M1609.42446,757.653634 L1609.42716,757.653634 L1609.42446,757.653634" id="Fill-2089" fill="#828483"></path>
                    <path d="M1508.90548,234.640225 L1508.90818,234.640225 L1508.90548,234.640225" id="Fill-2090" fill="#B7B5B1"></path>
                    <path d="M1508.90548,350.867831 L1508.90818,350.867831 L1508.90548,350.867831" id="Fill-2091" fill="#828483"></path>
                    <path d="M1508.90548,467.090028 L1508.90818,467.090028 L1508.90548,467.090028" id="Fill-2092" fill="#828483"></path>
                    <path d="M1508.90818,583.31493 L1609.42716,525.203831 L1508.90548,467.090028 L1508.90548,583.31493 L1508.90818,583.31493" id="Fill-2093" fill="#B7B5B1"></path>
                    <path d="M1508.90548,583.31493 L1508.90818,583.31493 L1508.90548,583.31493" id="Fill-2094" fill="#828483"></path>
                    <path d="M1508.90818,583.31493 L1609.42716,641.426028 L1609.42716,525.203831 L1508.90818,583.31493" id="Fill-2095" fill="#B7B5B1"></path>
                    <path d="M1508.90818,467.092732 L1609.42716,408.984338 L1508.90548,350.870535 L1508.90548,467.092732 L1508.90818,467.092732" id="Fill-2096" fill="#828483"></path>
                    <path d="M1508.90818,467.092732 L1609.42716,525.203831 L1609.42716,408.984338 L1508.90818,467.092732" id="Fill-2097" fill="#B7B5B1"></path>
                    <path d="M1508.90818,350.867831 L1609.42716,292.756732 L1508.90548,234.64293 L1508.90548,350.867831 L1508.90818,350.867831" id="Fill-2098" fill="#B7B5B1"></path>
                    <path d="M1508.90818,350.867831 L1609.42716,408.97893 L1609.42716,292.756732 L1508.90818,350.867831" id="Fill-2099" fill="#CECECA"></path>
                    <path d="M1508.90818,699.542535 L1609.42716,641.426028 L1508.90548,583.31493 L1508.90548,699.539831 L1508.90818,699.542535" id="Fill-2100" fill="#B7B5B1"></path>
                    <path d="M1508.90548,699.542535 L1508.90818,699.542535 L1508.90548,699.542535" id="Fill-2101" fill="#828483"></path>
                    <path d="M1508.90818,699.542535 L1609.42716,757.653634 L1609.42716,641.426028 L1508.90818,699.542535" id="Fill-2102" fill="#CECECA"></path>
                    <path d="M1508.90818,815.764732 L1609.42716,757.653634 L1508.90548,699.542535 L1508.90548,815.764732 L1508.90818,815.764732" id="Fill-2103" fill="#828483"></path>
                    <path d="M1508.90548,815.764732 L1508.90818,815.764732 L1508.90548,815.764732" id="Fill-2104" fill="#828483"></path>
                    <path d="M1508.90818,815.764732 L1609.42716,873.875831 L1609.42716,757.653634 L1508.90818,815.764732" id="Fill-2105" fill="#828483"></path>
                    <path d="M1408.3865,292.751324 L1408.3865,292.74862 L1408.3865,292.751324" id="Fill-2106" fill="#828483"></path>
                    <path d="M1408.3865,292.751324 L1508.90548,350.862423 L1508.90548,234.637521 L1408.3865,292.751324" id="Fill-2107" fill="#B7B5B1"></path>
                    <path d="M1408.3865,408.973521 L1508.90548,350.862423 L1408.3865,292.751324 L1408.3865,408.973521" id="Fill-2108" fill="#92928F"></path>
                    <path id="Fill-2109" fill="#828483"></path>
                    <path d="M1408.3865,408.973521 L1508.90548,467.087324 L1508.90548,350.862423 L1408.3865,408.973521" id="Fill-2110" fill="#828483"></path>
                    <path d="M1207.34043,292.751324 L1307.85941,350.862423 L1307.85941,234.637521 L1207.34043,292.751324" id="Fill-2111" fill="#B7B5B1"></path>
                    <path d="M1207.34043,408.973521 L1307.85941,350.862423 L1207.34043,292.751324 L1207.34043,408.973521" id="Fill-2112" fill="#828483"></path>
                    <path d="M1207.34043,408.973521 L1307.85941,467.087324 L1307.85941,350.862423 L1207.34043,408.973521" id="Fill-2113" fill="#92928F"></path>
                    <path d="M1408.3865,525.198423 L1508.90548,467.087324 L1408.3865,408.973521 L1408.3865,525.198423" id="Fill-2114" fill="#B7B5B1"></path>
                    <path d="M1609.42716,525.198423 L1709.94614,467.087324 L1609.42716,408.973521 L1609.42716,525.198423" id="Fill-2115" fill="#D8D6CE"></path>
                    <path id="Fill-2116" fill="#828483"></path>
                    <path d="M1408.3865,525.198423 L1508.90548,583.309521 L1508.90548,467.087324 L1408.3865,525.198423" id="Fill-2117" fill="#B7B5B1"></path>
                    <path d="M1408.3865,641.423324 L1508.90548,583.309521 L1408.3865,525.198423 L1408.3865,641.423324" id="Fill-2118" fill="#CECECA"></path>
                    <path id="Fill-2119" fill="#828483"></path>
                    <path d="M1408.3865,641.423324 L1508.90548,699.534423 L1508.90548,583.309521 L1408.3865,641.423324" id="Fill-2120" fill="#CECECA"></path>
                    <path id="Fill-2121" fill="#828483"></path>
                    <path d="M1408.3865,757.648225 L1508.90548,815.762028 L1508.90548,699.539831 L1408.3865,757.648225" id="Fill-2122" fill="#828483"></path>
                    <path id="Fill-2123" fill="#828483"></path>
                    <path id="Fill-2124" fill="#828483"></path>
                    <path d="M1307.86212,467.092732 L1408.3838,408.981634 L1307.86212,350.870535 L1307.86212,467.092732" id="Fill-2125" fill="#92928F"></path>
                    <path id="Fill-2126" fill="#828483"></path>
                    <path d="M1307.86212,467.092732 L1408.3838,525.206535 L1408.3838,408.981634 L1307.86212,467.092732" id="Fill-2127" fill="#92928F"></path>
                    <path d="M1307.86212,583.317634 L1408.3838,525.206535 L1307.86212,467.092732 L1307.86212,583.317634" id="Fill-2128" fill="#92928F"></path>
                    <path id="Fill-2129" fill="#828483"></path>
                    <path d="M1307.86212,699.542535 L1408.3838,641.428732 L1307.86212,583.317634 L1307.86212,699.542535" id="Fill-2130" fill="#B7B5B1"></path>
                    <path id="Fill-2131" fill="#828483"></path>
                    <path d="M1307.86212,699.542535 L1408.3838,757.656338 L1408.3838,641.428732 L1307.86212,699.542535" id="Fill-2132" fill="#B7B5B1"></path>
                    <path d="M1307.86212,815.767437 L1408.3838,757.656338 L1307.86212,699.542535 L1307.86212,815.767437" id="Fill-2133" fill="#828483"></path>
                    <path id="Fill-2134" fill="#828483"></path>
                    <path id="Fill-2135" fill="#828483"></path>
                    <path id="Fill-2136" fill="#828483"></path>
                    <path d="M1207.34043,525.206535 L1307.86212,467.095437 L1207.34043,408.981634 L1207.34043,525.206535" id="Fill-2137" fill="#92928F"></path>
                    <path id="Fill-2138" fill="#828483"></path>
                    <path d="M1207.34043,525.206535 L1307.86212,583.317634 L1307.86212,467.095437 L1207.34043,525.206535" id="Fill-2139" fill="#92928F"></path>
                    <path d="M1207.34043,641.428732 L1307.86212,583.317634 L1207.34043,525.206535 L1207.34043,641.428732" id="Fill-2140" fill="#92928F"></path>
                    <path id="Fill-2141" fill="#828483"></path>
                    <path d="M1207.34043,641.428732 L1307.86212,699.542535 L1307.86212,583.317634 L1207.34043,641.428732" id="Fill-2142" fill="#B7B5B1"></path>
                    <path d="M1207.34043,757.656338 L1307.86212,699.542535 L1207.34043,641.428732 L1207.34043,757.656338" id="Fill-2143" fill="#828483"></path>
                    <path d="M1207.34043,757.659042 L1207.34043,757.656338 L1207.34043,757.659042" id="Fill-2144" fill="#828483"></path>
                    <path d="M1207.34043,757.656338 L1307.86212,815.770141 L1307.86212,699.542535 L1207.34043,757.656338" id="Fill-2145" fill="#828483"></path>
                    <path d="M1207.34043,757.659042 L1207.34043,873.881239 L1307.86212,815.770141 L1207.34043,757.656338 L1207.34043,757.659042" id="Fill-2146" fill="#92928F"></path>
                    <path id="Fill-2147" fill="#828483"></path>
                    <path id="Fill-2148" fill="#828483"></path>
                    <path id="Fill-2149" fill="#828483"></path>
                    <path id="Fill-2150" fill="#828483"></path>
                    <path d="M1810.47052,757.648225 L1910.9895,699.539831 L1810.47052,641.423324 L1810.47052,757.648225" id="Fill-2151" fill="#92928F"></path>
                    <path id="Fill-2152" fill="#828483"></path>
                    <path d="M1810.47052,757.648225 L1910.9895,815.762028 L1910.9895,699.539831 L1810.47052,757.648225" id="Fill-2153" fill="#B7B5B1"></path>
                    <path id="Fill-2154" fill="#828483"></path>
                    <path d="M2011.51118,873.875831 L1910.9895,931.98693 L2011.51388,990.098028 L2011.51388,873.875831 L2011.51118,873.875831" id="Fill-2155" fill="#D8D6CE"></path>
                    <path d="M2011.51118,873.875831 L1910.9895,815.764732 L1910.9895,931.98693 L2011.51118,873.875831" id="Fill-2156" fill="#B7B5B1"></path>
                    <path d="M2011.51388,989.903324 L2011.51388,873.678423 L1910.9895,931.792225 L2011.51118,989.903324 L2011.51388,989.903324" id="Fill-2157" fill="#D8D6CE"></path>
                    <path d="M2011.51118,757.412958 L1910.9895,699.301859 L1910.9895,815.526761 L2011.51118,757.412958" id="Fill-2158" fill="#B7B5B1"></path>
                    <path d="M2011.51388,873.443155 L2011.51388,757.218254 L1910.9895,815.329352 L2011.51118,873.443155 L2011.51388,873.443155" id="Fill-2159" fill="#B7B5B1"></path>
                    <path id="Fill-2160" fill="#828483"></path>
                    <path d="M2011.51118,990.108845 L1910.9895,931.995042 L1910.9895,1048.21724 L2011.51118,990.108845" id="Fill-2161" fill="#D8D6CE"></path>
                    <path id="Fill-2162" fill="#B7B5B1"></path>
                    <path d="M1709.94614,583.317634 L1810.47052,525.206535 L1709.94614,467.092732 L1709.94614,583.317634" id="Fill-2163" fill="#B7B5B1"></path>
                    <path id="Fill-2164" fill="#828483"></path>
                    <path d="M1709.94614,583.317634 L1810.47052,641.428732 L1810.47052,525.206535 L1709.94614,583.317634" id="Fill-2165" fill="#B7B5B1"></path>
                    <path d="M1709.94614,699.542535 L1810.47052,641.428732 L1709.94614,583.317634 L1709.94614,699.542535" id="Fill-2166" fill="#B7B5B1"></path>
                    <path id="Fill-2167" fill="#828483"></path>
                    <path d="M1709.94614,699.542535 L1810.47052,757.656338 L1810.47052,641.428732 L1709.94614,699.542535" id="Fill-2168" fill="#92928F"></path>
                    <path d="M1709.94614,815.767437 L1810.47052,757.656338 L1709.94614,699.542535 L1709.94614,815.767437" id="Fill-2169" fill="#92928F"></path>
                    <path id="Fill-2170" fill="#828483"></path>
                    <path id="Fill-2171" fill="#828483"></path>
                    <path id="Fill-2172" fill="#FFFFFF"></path>
                    <path id="Fill-2173" fill="#828483"></path>
                    <path d="M1609.42446,525.206535 L1709.94614,583.317634 L1709.94614,467.095437 L1609.42446,525.206535" id="Fill-2174" fill="#B7B5B1"></path>
                    <path d="M1609.42716,408.870761 L1709.94614,350.759662 L1609.42716,292.645859 L1609.42716,408.870761" id="Fill-2175" fill="#D8D6CE"></path>
                    <path d="M1609.42446,408.878873 L1709.94614,466.989972 L1709.94614,350.767775 L1609.42446,408.878873" id="Fill-2176" fill="#D8D6CE"></path>
                    <path d="M1609.42446,641.428732 L1709.94614,583.317634 L1609.42446,525.206535 L1609.42446,641.428732" id="Fill-2177" fill="#828483"></path>
                    <path id="Fill-2178" fill="#828483"></path>
                    <path d="M1609.42446,641.428732 L1709.94614,699.542535 L1709.94614,583.317634 L1609.42446,641.428732" id="Fill-2179" fill="#828483"></path>
                    <path d="M1609.42446,757.656338 L1709.94614,699.542535 L1609.42446,641.428732 L1609.42446,757.656338" id="Fill-2180" fill="#CECECA"></path>
                    <path d="M1609.42446,757.659042 L1609.42446,757.656338 L1609.42446,757.659042" id="Fill-2181" fill="#828483"></path>
                    <path d="M1609.42446,757.656338 L1709.94614,815.770141 L1709.94614,699.542535 L1609.42446,757.656338" id="Fill-2182" fill="#92928F"></path>
                    <path d="M1609.42446,757.659042 L1609.42446,873.881239 L1709.94614,815.770141 L1609.42446,757.656338 L1609.42446,757.659042" id="Fill-2183" fill="#92928F"></path>
                </g>
                <rect id="Rectangle-7" fill-opacity="0.72" fill="#000000" sketch:type="MSShapeGroup" x="0" y="0" width="2012" height="1920"></rect>
            </g>
        </g>
    </g>
</svg>